<svg width="60" height="60" viewBox="0 0 60 60" fill="none" xmlns="http://www.w3.org/2000/svg">
<circle cx="30" cy="30" r="30" fill="#57E559"/>
<path d="M26.6668 29.8619C24.8335 29.8619 23.3103 29.2554 22.0972 28.0423C20.8845 26.8293 20.2781 25.3061 20.2781 23.4727C20.2781 21.6394 20.8845 20.1163 22.0972 18.9036C23.3103 17.6905 24.8335 17.084 26.6668 17.084C28.5002 17.084 30.0234 17.6905 31.2364 18.9036C32.4492 20.1163 33.0556 21.6394 33.0556 23.4727C33.0556 25.3061 32.4492 26.8293 31.2364 28.0423C30.0234 29.2554 28.5002 29.8619 26.6668 29.8619ZM13.3335 43.2227V39.0561C13.3335 38.1025 13.5742 37.2322 14.0556 36.4452C14.5372 35.658 15.2225 35.0561 16.1114 34.6394C17.917 33.8061 19.6854 33.1765 21.4168 32.7507C23.1482 32.3248 24.8982 32.1119 26.6668 32.1119H27.1806C27.3567 32.1119 27.5188 32.1211 27.6668 32.1394C27.4816 32.5655 27.3357 32.9938 27.2293 33.4244C27.1229 33.855 27.0372 34.3433 26.9722 34.8894H26.6668C24.9354 34.8894 23.2942 35.0886 21.7431 35.4869C20.1922 35.885 18.7039 36.4358 17.2781 37.1394C16.8984 37.3338 16.6089 37.607 16.4097 37.959C16.2109 38.3109 16.1114 38.6766 16.1114 39.0561V40.4452H27.0835C27.2316 40.973 27.4167 41.4661 27.6389 41.9244C27.8611 42.3827 28.1204 42.8155 28.4168 43.2227H13.3335ZM37.4168 45.0007L36.9722 42.334C36.5464 42.1951 36.1228 42.0122 35.7014 41.7852C35.2803 41.5586 34.9077 41.297 34.5835 41.0007L32.2502 41.584L31.0002 39.4727L32.9447 37.6952C32.8892 37.3988 32.8614 37.0469 32.8614 36.6394C32.8614 36.2322 32.8892 35.8804 32.9447 35.584L31.0002 33.8061L32.2502 31.6952L34.5835 32.2786C34.9077 31.9822 35.2803 31.7205 35.7014 31.4936C36.1228 31.2669 36.5464 31.0841 36.9722 30.9452L37.4168 28.2786H40.0281L40.4723 30.9452C40.8984 31.0841 41.322 31.2693 41.7431 31.5007C42.1645 31.732 42.5372 32.0005 42.8614 32.3061L45.1947 31.6952L46.4447 33.834L44.5002 35.6119C44.5557 35.8897 44.5835 36.2369 44.5835 36.6536C44.5835 37.0702 44.5557 37.4175 44.5002 37.6952L46.4447 39.4727L45.1947 41.584L42.8614 41.0007C42.5372 41.297 42.1645 41.5586 41.7431 41.7852C41.322 42.0122 40.8984 42.1951 40.4723 42.334L40.0281 45.0007H37.4168ZM38.7222 39.9727C39.6945 39.9727 40.4931 39.6602 41.1181 39.0352C41.7431 38.4102 42.0556 37.6116 42.0556 36.6394C42.0556 35.6672 41.7431 34.8686 41.1181 34.2436C40.4931 33.6186 39.6945 33.3061 38.7222 33.3061C37.75 33.3061 36.9514 33.6186 36.3264 34.2436C35.7014 34.8686 35.3889 35.6672 35.3889 36.6394C35.3889 37.6116 35.7014 38.4102 36.3264 39.0352C36.9514 39.6602 37.75 39.9727 38.7222 39.9727ZM26.6668 27.084C27.6946 27.084 28.5534 26.7391 29.2431 26.0494C29.9331 25.3594 30.2781 24.5005 30.2781 23.4727C30.2781 22.445 29.9331 21.5862 29.2431 20.8965C28.5534 20.2068 27.6946 19.8619 26.6668 19.8619C25.6391 19.8619 24.7803 20.2068 24.0906 20.8965C23.4006 21.5862 23.0556 22.445 23.0556 23.4727C23.0556 24.5005 23.4006 25.3594 24.0906 26.0494C24.7803 26.7391 25.6391 27.084 26.6668 27.084Z" fill="white"/>
</svg>
