<svg width="1321" height="668" viewBox="0 0 1321 668" fill="none" xmlns="http://www.w3.org/2000/svg">
<path d="M570 397.59V253.59H739V311.09H671.5V397.59H731.5V476.59H671.5V581.09H570V476.59H444L405.5 397.59H570Z" fill="white"/>
<path d="M769 477.09V254.09H938V311.59H870.5V398.09H930.5V477.09H870.5V581.59H769V477.09Z" fill="white"/>
<path d="M321.668 225.972L380.21 88.212L534.808 374.94L395 374.94L321.668 225.972Z" fill="white"/>
<path d="M339 315.098L273.5 461.213H410.5L470 582.713H188L187.744 582.259C150.207 578.121 121 546.102 121 507.213C121 492.335 125.275 478.463 132.655 466.772L273.5 181.213L339 315.098Z" fill="white"/>
<path fill-rule="evenodd" clip-rule="evenodd" d="M1005.12 580.656C1004.58 580.544 1004.05 580.423 1003.53 580.295C1004.05 580.423 1004.58 580.544 1005.12 580.656ZM977.706 564.598V564.597V564.598ZM1023 252.726C1072.09 247.284 1099.83 247.144 1149.5 252.726C1161.33 256.131 1166.31 258.019 1176.5 264.226C1183.69 269.025 1187.26 272.003 1192 277.226C1192.94 278.698 1193.78 280.051 1194.55 281.337L1195.29 282.6C1195.65 283.223 1195.99 283.832 1196.31 284.435C1198.56 288.655 1199.97 292.543 1201 298.226V360.226H1115.5C1115.5 360.11 1116 323.359 1115.5 320.226C1115 317.092 1113 311.092 1106 307.226C1099 303.361 1081.5 303.361 1075.5 307.226C1069.5 311.092 1067.34 313.868 1066 320.226V415.591H966V312.726C966.034 304.256 966.503 299.353 968.5 290.726C971.333 285.205 973.342 281.43 977.63 276.693C977.96 276.329 978.303 275.959 978.661 275.582C979.377 274.828 980.153 274.046 981 273.226C987.16 267.313 991.588 264.37 998.75 260.803C999.261 260.549 999.787 260.291 1000.33 260.029C1000.87 259.766 1001.43 259.499 1002 259.226C1010.23 255.175 1014.85 253.892 1023 252.726Z" fill="white"/>
<path fill-rule="evenodd" clip-rule="evenodd" d="M1154 248.593V248.592H1016.5V248.593H1154ZM1010.1 248.889L1010.1 248.89L1010.1 248.889ZM1001.95 250.436C1003 250.144 1004.05 249.887 1005.12 249.663C1004.05 249.887 1003 250.144 1001.95 250.436ZM1162.78 249.632V249.631V249.632ZM1167.31 250.824C1166.88 250.68 1166.45 250.545 1166.02 250.419C1166.45 250.545 1166.88 250.68 1167.31 250.824ZM998.833 251.411C998.313 251.591 997.793 251.778 997.271 251.973C997.793 251.778 998.313 251.591 998.833 251.411ZM990 255.092V255.093C991.129 254.56 992.227 254.059 993.305 253.588C992.227 254.059 991.129 254.56 990 255.092ZM1176.5 255.093V255.092C1176.23 254.939 1175.97 254.79 1175.71 254.644V254.645C1175.97 254.79 1176.23 254.94 1176.5 255.093ZM1179.75 257.338V257.337V257.338ZM980.839 262.299V262.3V262.299ZM1188.36 265.748C1187.55 264.631 1186.72 263.615 1185.84 262.66C1186.72 263.615 1187.55 264.631 1188.36 265.748ZM977.706 265.721V265.722V265.721ZM973.5 271.592V271.593C974.081 270.695 974.644 269.852 975.201 269.053C974.644 269.852 974.081 270.694 973.5 271.592ZM1189.97 268.129V268.128V268.129ZM1192 271.592C1191.86 271.34 1191.72 271.093 1191.59 270.85V270.851C1191.72 271.094 1191.86 271.341 1192 271.593V271.592ZM1197.46 281.732C1197.29 281.292 1197.12 280.855 1196.93 280.419C1197.12 280.855 1197.29 281.292 1197.46 281.732ZM967.938 283.554C968.068 283.114 968.207 282.676 968.354 282.239C968.207 282.676 968.068 283.114 967.938 283.554ZM1198.41 284.416V284.415V284.416ZM1201 294.592C1200.86 293.982 1200.73 293.389 1200.6 292.812V292.813C1200.73 293.39 1200.86 293.983 1201 294.593V294.592ZM1023 577.592C1072.09 583.035 1099.83 583.174 1149.5 577.592C1161.33 574.187 1166.31 572.299 1176.5 566.092C1183.69 561.293 1187.26 558.315 1192 553.092C1196.67 545.748 1199.1 541.342 1200.69 533.706C1200.79 533.185 1200.9 532.648 1201 532.094V470.094H1115.5C1115.5 470.318 1116 506.969 1115.5 510.094C1115 513.229 1113 519.229 1106 523.094C1099 526.959 1081.5 526.959 1075.5 523.094C1069.5 519.229 1067.34 516.452 1066 510.094V414.728H966V517.592C966.026 524.223 966.322 528.667 967.406 534.424C967.615 535.534 967.853 536.692 968.124 537.924C968.243 538.465 968.368 539.021 968.5 539.592C971.987 546.387 974.226 550.538 981 557.092C988.04 563.85 992.817 566.729 1002 571.092C1010.23 575.143 1014.85 576.426 1023 577.592Z" fill="white"/>
</svg>
