<svg width="3473" height="2072" viewBox="0 0 3473 2072" fill="none" xmlns="http://www.w3.org/2000/svg">
<path d="M2987.17 774V344.312H3119.01C3140.98 344.312 3157.58 349.358 3168.81 359.449C3180.04 369.378 3187.53 383.375 3191.27 401.441C3195.18 419.345 3197.13 440.423 3197.13 464.674C3197.13 488.111 3194.12 506.829 3188.1 520.826C3182.24 534.824 3171.09 544.508 3154.65 549.879C3168.16 552.646 3177.6 559.4 3182.97 570.143C3188.51 580.722 3191.27 594.475 3191.27 611.402V774H3106.56V605.787C3106.56 593.255 3103.95 585.523 3098.74 582.594C3093.7 579.501 3085.48 577.955 3074.09 577.955V774H2987.17ZM3074.57 503.492H3095.33C3107.21 503.492 3113.15 490.553 3113.15 464.674C3113.15 447.91 3111.85 436.923 3109.24 431.715C3106.64 426.507 3101.76 423.902 3094.59 423.902H3074.57V503.492Z" fill="white"/>
<path d="M2732.78 774L2774.28 344.312H2920.03L2960.8 774H2879.51L2873.4 704.664H2821.64L2816.27 774H2732.78ZM2827.75 636.061H2866.81L2848.01 417.555H2844.11L2827.75 636.061Z" fill="white"/>
<path d="M2371.45 774V344.312H2502.31L2538.44 606.275L2574.33 344.312H2706.41V774H2627.8V464.43L2578.48 774H2501.33L2449.09 464.43V774H2371.45Z" fill="white"/>
<path d="M2172.72 774V344.312H2258.66V700.758H2347.04V774H2172.72Z" fill="white"/>
<path d="M1918.32 774L1959.83 344.312H2105.58L2146.35 774H2065.05L2058.95 704.664H2007.19L2001.82 774H1918.32ZM2013.29 636.061H2052.36L2033.56 417.555H2029.65L2013.29 636.061Z" fill="white"/>
<path d="M3037.95 1485C2975.63 1485 2930.65 1471.63 2902.98 1444.89C2875.57 1418.15 2861.87 1375.58 2861.87 1317.2V1259.71H2996.84V1333.24C2996.84 1346.84 2999.16 1357.53 3003.82 1365.33C3008.73 1372.91 3017.13 1376.7 3029.03 1376.7C3041.44 1376.7 3049.97 1373.58 3054.62 1367.34C3059.53 1361.1 3061.99 1350.85 3061.99 1336.59C3061.99 1318.54 3059.92 1303.49 3055.79 1291.46C3051.65 1279.21 3044.41 1267.62 3034.07 1256.7C3023.98 1245.56 3009.89 1232.63 2991.79 1217.92L2930.52 1167.78C2884.75 1130.57 2861.87 1088.01 2861.87 1040.1C2861.87 989.956 2875.32 951.738 2902.21 925.443C2929.35 899.148 2968.52 886 3019.72 886C3082.29 886 3126.63 900.373 3152.74 929.12C3179.12 957.867 3192.3 1001.54 3192.3 1060.15H3053.46V1019.71C3053.46 1011.68 3050.74 1005.44 3045.31 1000.99C3040.14 996.53 3033.03 994.301 3023.98 994.301C3013.12 994.301 3005.11 996.975 2999.94 1002.32C2995.03 1007.45 2992.57 1014.13 2992.57 1022.38C2992.57 1030.62 2995.15 1039.54 3000.33 1049.12C3005.5 1058.7 3015.71 1069.73 3030.96 1082.21L3109.69 1147.39C3125.47 1160.32 3139.94 1174.02 3153.13 1188.51C3166.32 1202.77 3176.92 1219.48 3184.93 1238.65C3192.95 1257.59 3196.96 1280.77 3196.96 1308.17C3196.96 1363.44 3185.06 1406.78 3161.27 1438.2C3137.75 1469.4 3096.64 1485 3037.95 1485Z" fill="white"/>
<path d="M2689.68 1479.65V891.348H2821.54V1479.65H2689.68Z" fill="white"/>
<path d="M2317.36 1479.65V891.348H2526.79C2561.69 891.348 2588.06 898.256 2605.9 912.072C2623.74 925.665 2635.64 944.83 2641.58 969.565C2647.79 994.078 2650.89 1022.94 2650.89 1056.14C2650.89 1088.23 2646.11 1113.86 2636.54 1133.02C2627.23 1152.18 2609.52 1165.44 2583.41 1172.8C2604.87 1176.59 2619.87 1185.83 2628.4 1200.54C2637.19 1215.03 2641.58 1233.86 2641.58 1257.03V1479.65H2507.01V1249.34C2507.01 1232.18 2502.87 1221.6 2494.6 1217.59C2486.58 1213.35 2473.53 1211.24 2455.43 1211.24V1479.65H2317.36ZM2456.2 1109.29H2489.17C2508.04 1109.29 2517.48 1091.57 2517.48 1056.14C2517.48 1033.19 2515.41 1018.14 2511.27 1011.01C2507.14 1003.88 2499.38 1000.32 2488 1000.32H2456.2V1109.29Z" fill="white"/>
<path d="M1921 1479.65V891.348H2056.74V1101.6H2121.12V891.348H2256.86V1479.65H2121.12V1212.91H2056.74V1479.65H1921Z" fill="white"/>
<path d="M920.73 845.922V730.984H1055.62V776.88H1001.75V845.922H1049.64V908.979H1001.75V992.388H920.73V908.979H820.16L789.43 845.922H920.73Z" fill="#FCFDFF"/>
<path d="M1079.56 909.377V731.383H1214.45V777.278H1160.58V846.321H1208.47V909.377H1160.58V992.787H1079.56V909.377Z" fill="white"/>
<path d="M722.514 708.942L769.241 598.985L892.638 827.846L781.046 827.846L722.514 708.942Z" fill="#B6261C"/>
<path d="M736.354 780.079L684.072 896.705H793.423L840.915 993.685H615.828L615.623 993.32C585.661 990.018 562.348 964.462 562.348 933.421C562.348 921.536 565.765 910.454 571.665 901.118L684.072 673.215L736.354 780.079Z" fill="#3370CA"/>
<path d="M1424.38 956.179C1422.66 963.972 1421.5 968.234 1417.2 974.537C1413.66 980.969 1410.82 983.736 1404.83 987.707C1401.39 989.666 1398.68 990.839 1395.94 991.584C1398.68 990.839 1401.39 989.667 1404.82 987.709C1410.81 983.738 1413.65 980.971 1417.19 974.539C1421.5 968.236 1422.65 963.974 1424.37 956.181V898.712H1356.14V898.71H1424.38V956.179ZM1316.63 939.417C1317.97 944.009 1319.2 946.304 1323.81 948.995C1331.62 951.007 1336.82 951.348 1343.45 950.285C1336.81 951.35 1331.62 951.01 1323.8 948.997C1319.19 946.306 1317.96 944.011 1316.62 939.419V860.291H1316.63V939.417ZM1344.9 950.033C1344.58 950.093 1344.26 950.149 1343.95 950.202C1344.26 950.149 1344.58 950.093 1344.9 950.033ZM1349.74 948.997C1348.35 949.33 1347.03 949.62 1345.78 949.866C1347.03 949.62 1348.35 949.329 1349.74 948.996V948.997ZM1282.3 730.296C1321.48 725.952 1343.62 725.841 1383.27 730.296C1392.71 733.014 1396.68 734.52 1404.82 739.475C1410.55 743.305 1413.41 745.683 1417.19 749.852C1421.17 756.115 1423.12 759.701 1424.37 766.613V816.099H1356.14V815.449C1356.19 811.147 1356.49 786.903 1356.14 784.241V784.171C1356.13 784.155 1356.12 784.139 1356.12 784.122C1355.71 781.612 1354.1 776.88 1348.58 773.815C1348.57 773.808 1348.56 773.802 1348.55 773.795C1348.54 773.792 1348.54 773.789 1348.53 773.786C1342.93 770.711 1328.98 770.715 1324.2 773.797C1319.41 776.882 1317.68 779.098 1316.62 784.173V860.291H1236.81V778.185C1236.84 771.425 1237.21 767.511 1238.8 760.625C1241.59 755.202 1243.37 751.889 1248.78 746.657C1254.4 741.263 1258.21 738.965 1265.54 735.483C1270.05 733.267 1273.19 732.089 1276.82 731.268C1276.93 731.244 1277.03 731.222 1277.14 731.198C1277.88 731.037 1278.64 730.888 1279.44 730.748C1279.88 730.671 1280.33 730.595 1280.79 730.522C1280.97 730.494 1281.15 730.465 1281.34 730.438C1281.65 730.39 1281.97 730.343 1282.3 730.296Z" fill="white"/>
<path d="M1424.38 763.708C1422.66 755.915 1421.5 751.653 1417.2 745.349C1413.66 738.918 1410.82 736.151 1404.83 732.18C1401.39 730.22 1398.68 729.048 1395.94 728.303C1398.68 729.048 1401.39 730.22 1404.82 732.178C1410.81 736.149 1413.65 738.916 1417.19 745.347C1421.5 751.651 1422.65 755.913 1424.37 763.706V821.175H1356.14V821.177H1424.38V763.708ZM1316.63 780.47C1317.97 775.878 1319.2 773.582 1323.81 770.891C1331.62 768.88 1336.82 768.539 1343.45 769.601C1336.81 768.537 1331.62 768.877 1323.8 770.889C1319.19 773.58 1317.96 775.876 1316.62 780.468V859.597H1316.63V780.47ZM1344.9 769.853C1344.58 769.794 1344.26 769.738 1343.95 769.684C1344.26 769.738 1344.58 769.794 1344.9 769.853ZM1349.74 770.889C1348.35 770.556 1347.03 770.267 1345.78 770.02C1347.03 770.267 1348.35 770.557 1349.74 770.89V770.889ZM1282.3 989.591C1321.48 993.935 1343.62 994.046 1383.27 989.591C1392.71 986.873 1396.68 985.365 1404.82 980.411C1410.55 976.58 1413.41 974.204 1417.19 970.035C1421.17 963.772 1423.12 960.186 1424.37 953.273V903.788H1356.14V904.437C1356.19 908.74 1356.49 932.984 1356.14 935.645V935.716C1356.13 935.732 1356.12 935.748 1356.12 935.764C1355.71 938.275 1354.1 943.007 1348.58 946.072C1348.57 946.079 1348.56 946.085 1348.55 946.092C1348.54 946.094 1348.54 946.098 1348.53 946.1C1342.93 949.175 1328.98 949.172 1324.2 946.09C1319.41 943.004 1317.68 940.788 1316.62 935.714V859.597H1236.81V941.702C1236.84 948.462 1237.21 952.376 1238.8 959.262C1241.59 964.685 1243.37 967.998 1248.78 973.229C1254.4 978.623 1258.21 980.922 1265.54 984.404C1270.05 986.62 1273.19 987.797 1276.82 988.619C1276.93 988.643 1277.03 988.665 1277.14 988.688C1277.88 988.85 1278.64 988.998 1279.44 989.138C1279.88 989.216 1280.33 989.292 1280.79 989.365C1280.97 989.393 1281.15 989.421 1281.34 989.449C1281.65 989.497 1281.97 989.544 1282.3 989.591Z" fill="white"/>
<path d="M999.353 254C1259.9 254 1482.25 417.503 1569.41 647.5H1722.9V774.41H1602.31V774.412H1464.73C1423.08 555.328 1230.56 389.692 999.357 389.691C768.151 389.691 575.631 555.328 533.985 774.412H396.394V774.41H275V647.5H429.297C516.456 417.503 738.81 254 999.353 254Z" fill="#3370CA"/>
<path d="M999.353 1480C1259.9 1480 1482.25 1316.5 1569.41 1086.5H1722.9V959.59H1602.31V959.588H1464.73C1423.08 1178.67 1230.56 1344.31 999.357 1344.31C768.151 1344.31 575.632 1178.67 533.986 959.588H396.394V959.59H275V1086.5H429.297C516.456 1316.5 738.81 1480 999.353 1480Z" fill="#B6261C"/>
<path d="M3075.91 1792.9V1668.34H3089.24L3091.61 1682.79H3092.9C3095.91 1676.63 3099.64 1672.21 3104.08 1669.53C3108.53 1666.84 3113.4 1665.5 3118.71 1665.5C3124.3 1665.5 3129.18 1666.92 3133.33 1669.76C3137.64 1672.45 3140.79 1677.02 3142.8 1683.5C3145.81 1677.5 3149.82 1673 3154.84 1670C3159.86 1667 3165.02 1665.5 3170.33 1665.5C3175.63 1665.5 3180.29 1666.76 3184.31 1669.29C3188.32 1671.66 3191.41 1675.6 3193.56 1681.13C3195.85 1686.5 3197 1693.84 3197 1703.15V1792.9H3179.36V1704.57C3179.36 1695.89 3177.93 1690.13 3175.06 1687.29C3172.34 1684.29 3168.9 1682.79 3164.74 1682.79C3159.43 1682.79 3154.84 1685.79 3150.97 1691.78C3147.24 1697.78 3145.38 1706.15 3145.38 1716.89V1792.9H3127.74V1704.57C3127.74 1695.89 3126.31 1690.13 3123.44 1687.29C3120.72 1684.29 3117.27 1682.79 3113.12 1682.79C3107.81 1682.79 3103.22 1685.79 3099.35 1691.78C3095.48 1697.78 3093.54 1706.15 3093.54 1716.89V1792.9H3075.91Z" fill="white"/>
<path d="M3016.74 1795.74C3002.69 1795.74 2992.01 1790.69 2984.7 1780.59C2977.53 1770.32 2973.94 1753.67 2973.94 1730.62C2973.94 1708.2 2977.45 1691.78 2984.48 1681.37C2991.65 1670.79 3002.33 1665.5 3016.53 1665.5C3028.86 1665.5 3038.11 1670.08 3044.27 1679.23C3050.58 1688.23 3053.74 1703.15 3053.74 1723.99V1736.3H2992.44C2992.58 1750.83 2994.66 1761.48 2998.68 1768.27C3002.69 1775.06 3008.86 1778.45 3017.17 1778.45C3022.77 1778.45 3027.35 1776.01 3030.94 1771.11C3034.52 1766.06 3036.32 1759.19 3036.32 1750.51H3053.74C3053.74 1764.4 3050.3 1775.45 3043.41 1783.66C3036.68 1791.71 3027.78 1795.74 3016.74 1795.74ZM2992.65 1719.02H3035.24C3035.24 1707.18 3033.66 1698.18 3030.51 1692.02C3027.35 1685.86 3022.69 1682.79 3016.53 1682.79C3008.64 1682.79 3002.83 1685.86 2999.11 1692.02C2995.52 1698.02 2993.37 1707.02 2992.65 1719.02Z" fill="white"/>
<path d="M2948.88 1795.27C2943.72 1795.27 2939.63 1793.85 2936.62 1791.01C2933.75 1788.17 2931.67 1784.62 2930.38 1780.35C2929.23 1775.93 2928.66 1771.35 2928.66 1766.62V1685.63H2918.98V1668.35H2928.66L2932.53 1633.77H2946.3V1668.35H2961.57V1685.63H2946.3V1767.09C2946.3 1774.67 2949.67 1778.46 2956.41 1778.46H2961.57V1791.96C2960.13 1792.9 2958.2 1793.69 2955.76 1794.32C2953.32 1794.96 2951.03 1795.27 2948.88 1795.27Z" fill="white"/>
<path d="M2871.2 1795.74C2862.59 1795.74 2855.57 1794 2850.12 1790.53C2844.81 1786.9 2840.94 1782.32 2838.5 1776.8C2836.07 1771.27 2834.85 1765.43 2834.85 1759.27C2834.85 1757.54 2834.85 1756.27 2834.85 1755.48C2834.99 1754.7 2835.06 1754.22 2835.06 1754.06H2853.56V1756.43C2853.56 1764.17 2855.35 1769.85 2858.94 1773.48C2862.52 1776.95 2866.9 1778.69 2872.06 1778.69C2876.65 1778.69 2880.59 1777.11 2883.89 1773.95C2887.33 1770.8 2889.05 1766.22 2889.05 1760.22C2889.05 1755.01 2887.76 1750.99 2885.18 1748.14C2882.74 1745.14 2879.59 1742.78 2875.71 1741.04C2871.84 1739.15 2867.68 1737.41 2863.24 1735.83C2858.79 1734.09 2854.64 1731.96 2850.76 1729.44C2846.89 1726.91 2843.67 1723.44 2841.08 1719.02C2838.65 1714.44 2837.43 1708.44 2837.43 1701.02C2837.43 1693.6 2838.86 1687.29 2841.73 1682.08C2844.6 1676.71 2848.68 1672.6 2853.99 1669.76C2859.3 1666.92 2865.53 1665.5 2872.7 1665.5C2879.73 1665.5 2885.61 1667.08 2890.34 1670.24C2895.22 1673.24 2898.87 1677.34 2901.31 1682.55C2903.89 1687.76 2905.18 1693.44 2905.18 1699.6C2905.18 1700.39 2905.11 1701.26 2904.97 1702.2C2904.97 1703.15 2904.97 1703.78 2904.97 1704.1H2886.68V1701.97C2886.68 1697.07 2885.54 1692.65 2883.24 1688.71C2881.09 1684.6 2877 1682.55 2870.98 1682.55C2866.82 1682.55 2863.6 1683.5 2861.3 1685.39C2859.15 1687.29 2857.65 1689.57 2856.79 1692.26C2856.07 1694.78 2855.71 1697.23 2855.71 1699.6C2855.71 1704.18 2856.93 1707.73 2859.37 1710.26C2861.95 1712.78 2865.17 1714.83 2869.05 1716.41C2872.92 1717.99 2877.08 1719.65 2881.52 1721.39C2885.97 1722.96 2890.12 1725.09 2894 1727.78C2897.87 1730.46 2901.02 1734.17 2903.46 1738.91C2906.04 1743.49 2907.33 1749.64 2907.33 1757.38C2907.33 1766.22 2905.75 1773.48 2902.6 1779.16C2899.45 1784.85 2895.14 1789.03 2889.69 1791.71C2884.39 1794.4 2878.22 1795.74 2871.2 1795.74Z" fill="white"/>
<path d="M2760.4 1836C2757.96 1836 2755.66 1835.84 2753.51 1835.53C2751.51 1835.21 2749.57 1834.74 2747.71 1834.1V1820.61H2753.94C2758.68 1820.61 2763.05 1818.63 2767.06 1814.69C2771.22 1810.74 2774.31 1803.48 2776.31 1792.9L2741.68 1668.34H2761.04L2780.18 1742.7C2780.61 1744.59 2781.04 1746.49 2781.47 1748.38C2782.05 1750.12 2782.55 1751.93 2782.98 1753.83C2783.55 1755.72 2784.06 1757.62 2784.49 1759.51C2785.06 1761.25 2785.56 1763.06 2785.99 1764.96H2786.85C2787.28 1763.06 2787.71 1761.17 2788.14 1759.28C2788.57 1757.38 2788.93 1755.49 2789.22 1753.59C2789.65 1751.7 2790.08 1749.8 2790.51 1747.91C2790.94 1746.01 2791.37 1744.12 2791.8 1742.23L2807.93 1668.34H2825.78L2796.96 1786.51C2794.81 1795.51 2792.09 1803.71 2788.79 1811.13C2785.63 1818.71 2781.76 1824.71 2777.17 1829.13C2772.58 1833.71 2766.99 1836 2760.4 1836Z" fill="white"/>
<path d="M2680.41 1795.74C2671.52 1795.74 2663.27 1794.16 2655.67 1791.01C2648.07 1787.85 2641.98 1782.72 2637.39 1775.61C2632.95 1768.51 2630.72 1758.96 2630.72 1746.96C2630.72 1746.17 2630.72 1745.3 2630.72 1744.36C2630.87 1743.25 2630.94 1742.54 2630.94 1742.22H2650.51C2650.51 1742.38 2650.44 1743.09 2650.3 1744.36C2650.3 1745.46 2650.3 1746.41 2650.3 1747.2C2650.3 1757.14 2653.09 1764.56 2658.68 1769.46C2664.28 1774.19 2671.23 1776.56 2679.55 1776.56C2689.44 1776.56 2697.04 1774.27 2702.35 1769.69C2707.8 1764.96 2710.52 1758.25 2710.52 1749.57C2710.52 1743.72 2709.09 1738.99 2706.22 1735.36C2703.49 1731.73 2699.84 1728.73 2695.25 1726.36C2690.8 1723.99 2685.86 1721.86 2680.41 1719.97C2674.96 1718.07 2669.44 1716.02 2663.85 1713.81C2658.4 1711.6 2653.38 1708.76 2648.79 1705.28C2644.34 1701.81 2640.69 1697.39 2637.82 1692.02C2635.1 1686.5 2633.73 1679.55 2633.73 1671.18C2633.73 1661.24 2635.81 1653.03 2639.97 1646.56C2644.27 1640.08 2649.94 1635.35 2656.96 1632.35C2664.13 1629.19 2672.02 1627.61 2680.62 1627.61C2689.23 1627.61 2696.97 1629.19 2703.85 1632.35C2710.88 1635.35 2716.47 1640.24 2720.63 1647.03C2724.79 1653.66 2726.87 1662.42 2726.87 1673.32V1676.16H2707.29V1672.61C2707.29 1664.24 2704.78 1657.84 2699.77 1653.42C2694.75 1649 2688.51 1646.79 2681.05 1646.79C2673.31 1646.79 2666.79 1648.61 2661.48 1652.24C2656.32 1655.87 2653.74 1661.63 2653.74 1669.53C2653.74 1675.05 2655.1 1679.55 2657.82 1683.02C2660.69 1686.5 2664.35 1689.42 2668.79 1691.79C2673.38 1694 2678.4 1696.05 2683.85 1697.94C2689.3 1699.84 2694.75 1701.89 2700.2 1704.1C2705.64 1706.31 2710.59 1709.15 2715.04 1712.62C2719.63 1716.1 2723.28 1720.52 2726.01 1725.89C2728.87 1731.1 2730.31 1737.8 2730.31 1746.01C2730.31 1758.17 2728.09 1767.88 2723.64 1775.14C2719.34 1782.4 2713.46 1787.69 2706 1791.01C2698.55 1794.16 2690.01 1795.74 2680.41 1795.74Z" fill="white"/>
<path d="M2487.78 1792.9V1668.34H2501.11L2503.48 1682.79H2504.77C2507.92 1676.63 2511.87 1672.21 2516.6 1669.53C2521.33 1666.84 2526.49 1665.5 2532.09 1665.5C2540.55 1665.5 2547.28 1668.34 2552.3 1674.02C2557.47 1679.55 2560.05 1689.26 2560.05 1703.15V1792.9H2542.41V1704.57C2542.41 1695.89 2540.9 1690.13 2537.89 1687.29C2535.02 1684.29 2531.22 1682.79 2526.49 1682.79C2520.9 1682.79 2515.95 1685.79 2511.65 1691.78C2507.49 1697.78 2505.41 1706.15 2505.41 1716.89V1792.9H2487.78Z" fill="white"/>
<path d="M2425.82 1795.74C2412.63 1795.74 2402.59 1790.53 2395.71 1780.11C2388.82 1769.53 2385.38 1753.04 2385.38 1730.62C2385.38 1708.2 2388.82 1691.78 2395.71 1681.37C2402.59 1670.79 2412.63 1665.5 2425.82 1665.5C2439.01 1665.5 2449.05 1670.79 2455.93 1681.37C2462.81 1691.78 2466.26 1708.2 2466.26 1730.62C2466.26 1753.04 2462.81 1769.53 2455.93 1780.11C2449.05 1790.53 2439.01 1795.74 2425.82 1795.74ZM2425.82 1778.45C2433.13 1778.45 2438.58 1774.82 2442.17 1767.56C2445.89 1760.3 2447.76 1749.49 2447.76 1735.12V1726.12C2447.76 1711.76 2445.89 1700.94 2442.17 1693.68C2438.58 1686.42 2433.13 1682.79 2425.82 1682.79C2418.51 1682.79 2412.99 1686.42 2409.26 1693.68C2405.67 1700.94 2403.88 1711.76 2403.88 1726.12V1735.12C2403.88 1749.49 2405.67 1760.3 2409.26 1767.56C2412.99 1774.82 2418.51 1778.45 2425.82 1778.45Z" fill="white"/>
<path d="M2343.54 1792.9V1668.34H2361.18V1792.9H2343.54ZM2343.11 1644.19V1621.69H2361.4V1644.19H2343.11Z" fill="white"/>
<path d="M2311.81 1795.27C2306.65 1795.27 2302.56 1793.85 2299.55 1791.01C2296.68 1788.17 2294.6 1784.62 2293.31 1780.35C2292.17 1775.93 2291.59 1771.35 2291.59 1766.62V1685.63H2281.91V1668.35H2291.59L2295.46 1633.77H2309.23V1668.35H2324.5V1685.63H2309.23V1767.09C2309.23 1774.67 2312.6 1778.46 2319.34 1778.46H2324.5V1791.96C2323.07 1792.9 2321.13 1793.69 2318.69 1794.32C2316.26 1794.96 2313.96 1795.27 2311.81 1795.27Z" fill="white"/>
<path d="M2217.81 1795.74C2215.08 1795.74 2212 1795.27 2208.56 1794.32C2205.12 1793.53 2201.82 1791.95 2198.66 1789.58C2195.65 1787.06 2193.14 1783.51 2191.14 1778.93C2189.13 1774.35 2188.12 1768.27 2188.12 1760.69C2188.12 1749.17 2190.56 1740.49 2195.44 1734.65C2200.46 1728.65 2207.27 1724.54 2215.87 1722.33C2224.62 1720.12 2234.44 1719.02 2245.34 1719.02V1702.91C2245.34 1696.92 2244.12 1692.1 2241.68 1688.47C2239.39 1684.68 2234.66 1682.79 2227.49 1682.79C2220.89 1682.79 2216.3 1684.92 2213.72 1689.18C2211.28 1693.28 2210.06 1697.7 2210.06 1702.44V1705.28H2192.64C2192.5 1704.49 2192.43 1703.7 2192.43 1702.91C2192.43 1702.13 2192.43 1701.18 2192.43 1700.07C2192.43 1688.71 2195.8 1680.1 2202.54 1674.26C2209.42 1668.42 2218.17 1665.5 2228.78 1665.5C2240.25 1665.5 2248.78 1668.58 2254.37 1674.74C2260.11 1680.73 2262.98 1689.26 2262.98 1700.31V1770.17C2262.98 1773.17 2263.62 1775.3 2264.91 1776.56C2266.2 1777.82 2267.56 1778.45 2269 1778.45H2275.88V1791.95C2274.88 1792.58 2273.37 1793.21 2271.36 1793.85C2269.5 1794.48 2267.13 1794.79 2264.27 1794.79C2259.68 1794.79 2255.81 1793.37 2252.65 1790.53C2249.64 1787.69 2247.56 1783.98 2246.41 1779.4H2245.34C2242.47 1784.45 2238.6 1788.48 2233.72 1791.48C2228.99 1794.32 2223.69 1795.74 2217.81 1795.74ZM2221.89 1778.45C2225.62 1778.45 2229.28 1777.35 2232.86 1775.14C2236.45 1772.77 2239.39 1769.3 2241.68 1764.72C2244.12 1760.14 2245.34 1754.46 2245.34 1747.67V1736.3C2237.59 1736.3 2230.78 1736.93 2224.9 1738.2C2219.17 1739.3 2214.65 1741.51 2211.35 1744.83C2208.2 1748.14 2206.62 1753.04 2206.62 1759.51C2206.62 1766.61 2207.91 1771.59 2210.49 1774.43C2213.22 1777.11 2217.02 1778.45 2221.89 1778.45Z" fill="white"/>
<path d="M2046.89 1792.9V1668.34H2060.23L2062.6 1682.79H2063.89C2066.9 1676.63 2070.63 1672.21 2075.07 1669.53C2079.52 1666.84 2084.39 1665.5 2089.7 1665.5C2095.29 1665.5 2100.16 1666.92 2104.32 1669.76C2108.62 1672.45 2111.78 1677.02 2113.79 1683.5C2116.8 1677.5 2120.81 1673 2125.83 1670C2130.85 1667 2136.01 1665.5 2141.32 1665.5C2146.62 1665.5 2151.28 1666.76 2155.3 1669.29C2159.31 1671.66 2162.4 1675.6 2164.55 1681.13C2166.84 1686.5 2167.99 1693.84 2167.99 1703.15V1792.9H2150.35V1704.57C2150.35 1695.89 2148.92 1690.13 2146.05 1687.29C2143.32 1684.29 2139.88 1682.79 2135.73 1682.79C2130.42 1682.79 2125.83 1685.79 2121.96 1691.78C2118.23 1697.78 2116.37 1706.15 2116.37 1716.89V1792.9H2098.73V1704.57C2098.73 1695.89 2097.3 1690.13 2094.43 1687.29C2091.7 1684.29 2088.26 1682.79 2084.1 1682.79C2078.8 1682.79 2074.21 1685.79 2070.34 1691.78C2066.47 1697.78 2064.53 1706.15 2064.53 1716.89V1792.9H2046.89Z" fill="white"/>
<path d="M1988.08 1792.9V1668.34H2001.41L2003.78 1684.68H2005.07C2006.5 1679.94 2008.73 1675.6 2011.74 1671.66C2014.75 1667.55 2018.91 1665.5 2024.21 1665.5C2026.65 1665.5 2028.66 1665.82 2030.24 1666.45C2031.81 1667.08 2032.6 1667.39 2032.6 1667.39V1687.52H2026.79C2023.07 1687.52 2019.55 1688.47 2016.25 1690.36C2013.1 1692.1 2010.52 1695.1 2008.51 1699.36C2006.65 1703.62 2005.72 1709.47 2005.72 1716.89V1792.9H1988.08Z" fill="white"/>
<path d="M1926.12 1795.74C1912.93 1795.74 1902.89 1790.53 1896.01 1780.11C1889.13 1769.53 1885.69 1753.04 1885.69 1730.62C1885.69 1708.2 1889.13 1691.78 1896.01 1681.37C1902.89 1670.79 1912.93 1665.5 1926.12 1665.5C1939.32 1665.5 1949.35 1670.79 1956.24 1681.37C1963.12 1691.78 1966.56 1708.2 1966.56 1730.62C1966.56 1753.04 1963.12 1769.53 1956.24 1780.11C1949.35 1790.53 1939.32 1795.74 1926.12 1795.74ZM1926.12 1778.45C1933.44 1778.45 1938.89 1774.82 1942.47 1767.56C1946.2 1760.3 1948.06 1749.49 1948.06 1735.12V1726.12C1948.06 1711.76 1946.2 1700.94 1942.47 1693.68C1938.89 1686.42 1933.44 1682.79 1926.12 1682.79C1918.81 1682.79 1913.29 1686.42 1909.56 1693.68C1905.98 1700.94 1904.18 1711.76 1904.18 1726.12V1735.12C1904.18 1749.49 1905.98 1760.3 1909.56 1767.56C1913.29 1774.82 1918.81 1778.45 1926.12 1778.45Z" fill="white"/>
<path d="M1839.98 1792.9V1685.63H1830.08V1668.34H1839.98V1648.45C1839.98 1643.72 1840.62 1639.14 1841.91 1634.72C1843.35 1630.3 1845.64 1626.75 1848.79 1624.06C1852.09 1621.22 1856.61 1619.8 1862.35 1619.8C1864.93 1619.8 1867.58 1620.12 1870.3 1620.75C1873.03 1621.22 1875.32 1621.85 1877.19 1622.64V1636.14H1867.72C1860.98 1636.14 1857.61 1639.93 1857.61 1647.51V1668.34H1877.19V1685.63H1857.61V1792.9H1839.98Z" fill="white"/>
<path d="M1742.96 1792.9V1668.34H1756.3L1758.66 1682.79H1759.95C1763.11 1676.63 1767.05 1672.21 1771.78 1669.53C1776.51 1666.84 1781.68 1665.5 1787.27 1665.5C1795.73 1665.5 1802.47 1668.34 1807.49 1674.02C1812.65 1679.55 1815.23 1689.26 1815.23 1703.15V1792.9H1797.59V1704.57C1797.59 1695.89 1796.09 1690.13 1793.08 1687.29C1790.21 1684.29 1786.41 1682.79 1781.68 1682.79C1776.08 1682.79 1771.14 1685.79 1766.84 1691.78C1762.68 1697.78 1760.6 1706.15 1760.6 1716.89V1792.9H1742.96Z" fill="white"/>
<path d="M1696.17 1792.9V1630.46H1715.1V1792.9H1696.17Z" fill="white"/>
<path d="M1585.92 1795.74C1571.86 1795.74 1561.18 1790.69 1553.87 1780.59C1546.7 1770.32 1543.11 1753.67 1543.11 1730.62C1543.11 1708.2 1546.63 1691.78 1553.65 1681.37C1560.82 1670.79 1571.5 1665.5 1585.7 1665.5C1598.03 1665.5 1607.28 1670.08 1613.45 1679.23C1619.76 1688.23 1622.91 1703.15 1622.91 1723.99V1736.3H1561.61C1561.75 1750.83 1563.83 1761.48 1567.85 1768.27C1571.86 1775.06 1578.03 1778.45 1586.35 1778.45C1591.94 1778.45 1596.53 1776.01 1600.11 1771.11C1603.7 1766.06 1605.49 1759.19 1605.49 1750.51H1622.91C1622.91 1764.4 1619.47 1775.45 1612.59 1783.66C1605.85 1791.71 1596.96 1795.74 1585.92 1795.74ZM1561.83 1719.02H1604.41C1604.41 1707.18 1602.84 1698.18 1599.68 1692.02C1596.53 1685.86 1591.87 1682.79 1585.7 1682.79C1577.81 1682.79 1572.01 1685.86 1568.28 1692.02C1564.69 1698.02 1562.54 1707.02 1561.83 1719.02Z" fill="white"/>
<path d="M1492.32 1795.74C1478.98 1795.74 1469.16 1790.53 1462.85 1780.11C1456.68 1769.53 1453.6 1753.04 1453.6 1730.62C1453.6 1708.2 1456.76 1691.78 1463.07 1681.37C1469.37 1670.79 1479.13 1665.5 1492.32 1665.5C1504.65 1665.5 1513.47 1669.68 1518.77 1678.05C1524.22 1686.42 1526.95 1698.57 1526.95 1714.52H1508.66C1508.66 1703.78 1507.52 1695.81 1505.22 1690.6C1502.93 1685.39 1498.63 1682.79 1492.32 1682.79C1485.29 1682.79 1480.13 1686.42 1476.83 1693.68C1473.68 1700.94 1472.1 1711.76 1472.1 1726.12V1735.12C1472.1 1749.49 1473.68 1760.3 1476.83 1767.56C1480.13 1774.82 1485.29 1778.45 1492.32 1778.45C1498.63 1778.45 1503.07 1775.77 1505.65 1770.4C1508.23 1764.88 1509.52 1756.98 1509.52 1746.72H1526.95C1526.95 1755.41 1525.8 1763.46 1523.5 1770.88C1521.21 1778.3 1517.48 1784.3 1512.32 1788.87C1507.3 1793.45 1500.63 1795.74 1492.32 1795.74Z" fill="white"/>
<path d="M1399.95 1792.9V1668.34H1413.29L1415.65 1684.68H1416.95C1418.38 1679.94 1420.6 1675.6 1423.61 1671.66C1426.62 1667.55 1430.78 1665.5 1436.09 1665.5C1438.53 1665.5 1440.53 1665.82 1442.11 1666.45C1443.69 1667.08 1444.48 1667.39 1444.48 1667.39V1687.52H1438.67C1434.94 1687.52 1431.43 1688.47 1428.13 1690.36C1424.97 1692.1 1422.39 1695.1 1420.39 1699.36C1418.52 1703.62 1417.59 1709.47 1417.59 1716.89V1792.9H1399.95Z" fill="white"/>
<path d="M1329.82 1795.74C1321.36 1795.74 1314.55 1792.98 1309.39 1787.45C1304.37 1781.77 1301.86 1771.98 1301.86 1758.09V1668.34H1319.5V1756.67C1319.5 1765.35 1320.93 1771.19 1323.8 1774.19C1326.81 1777.04 1330.68 1778.46 1335.42 1778.46C1341.01 1778.46 1345.88 1775.46 1350.04 1769.46C1354.34 1763.46 1356.5 1755.09 1356.5 1744.36V1668.34H1374.13V1792.9H1360.8L1358.43 1778.46H1357.14C1353.99 1784.61 1350.04 1789.03 1345.31 1791.72C1340.58 1794.4 1335.42 1795.74 1329.82 1795.74Z" fill="white"/>
<path d="M1239.9 1795.74C1226.71 1795.74 1216.68 1790.53 1209.79 1780.11C1202.91 1769.53 1199.47 1753.04 1199.47 1730.62C1199.47 1708.2 1202.91 1691.78 1209.79 1681.37C1216.68 1670.79 1226.71 1665.5 1239.9 1665.5C1253.1 1665.5 1263.13 1670.79 1270.02 1681.37C1276.9 1691.78 1280.34 1708.2 1280.34 1730.62C1280.34 1753.04 1276.9 1769.53 1270.02 1780.11C1263.13 1790.53 1253.1 1795.74 1239.9 1795.74ZM1239.9 1778.45C1247.22 1778.45 1252.67 1774.82 1256.25 1767.56C1259.98 1760.3 1261.84 1749.49 1261.84 1735.12V1726.12C1261.84 1711.76 1259.98 1700.94 1256.25 1693.68C1252.67 1686.42 1247.22 1682.79 1239.9 1682.79C1232.59 1682.79 1227.07 1686.42 1223.34 1693.68C1219.76 1700.94 1217.97 1711.76 1217.97 1726.12V1735.12C1217.97 1749.49 1219.76 1760.3 1223.34 1767.56C1227.07 1774.82 1232.59 1778.45 1239.9 1778.45Z" fill="white"/>
<path d="M1146.1 1795.74C1137.49 1795.74 1130.47 1794 1125.02 1790.53C1119.71 1786.9 1115.84 1782.32 1113.4 1776.8C1110.96 1771.27 1109.75 1765.43 1109.75 1759.27C1109.75 1757.54 1109.75 1756.27 1109.75 1755.48C1109.89 1754.7 1109.96 1754.22 1109.96 1754.06H1128.46V1756.43C1128.46 1764.17 1130.25 1769.85 1133.84 1773.48C1137.42 1776.95 1141.79 1778.69 1146.96 1778.69C1151.54 1778.69 1155.49 1777.11 1158.79 1773.95C1162.23 1770.8 1163.95 1766.22 1163.95 1760.22C1163.95 1755.01 1162.66 1750.99 1160.08 1748.14C1157.64 1745.14 1154.48 1742.78 1150.61 1741.04C1146.74 1739.15 1142.58 1737.41 1138.14 1735.83C1133.69 1734.09 1129.53 1731.96 1125.66 1729.44C1121.79 1726.91 1118.56 1723.44 1115.98 1719.02C1113.55 1714.44 1112.33 1708.44 1112.33 1701.02C1112.33 1693.6 1113.76 1687.29 1116.63 1682.08C1119.5 1676.71 1123.58 1672.6 1128.89 1669.76C1134.19 1666.92 1140.43 1665.5 1147.6 1665.5C1154.63 1665.5 1160.51 1667.08 1165.24 1670.24C1170.11 1673.24 1173.77 1677.34 1176.21 1682.55C1178.79 1687.76 1180.08 1693.44 1180.08 1699.6C1180.08 1700.39 1180.01 1701.26 1179.86 1702.2C1179.86 1703.15 1179.86 1703.78 1179.86 1704.1H1161.58V1701.97C1161.58 1697.07 1160.43 1692.65 1158.14 1688.71C1155.99 1684.6 1151.9 1682.55 1145.88 1682.55C1141.72 1682.55 1138.5 1683.5 1136.2 1685.39C1134.05 1687.29 1132.55 1689.57 1131.68 1692.26C1130.97 1694.78 1130.61 1697.23 1130.61 1699.6C1130.61 1704.18 1131.83 1707.73 1134.27 1710.26C1136.85 1712.78 1140.07 1714.83 1143.94 1716.41C1147.82 1717.99 1151.97 1719.65 1156.42 1721.39C1160.87 1722.96 1165.02 1725.09 1168.89 1727.78C1172.77 1730.46 1175.92 1734.17 1178.36 1738.91C1180.94 1743.49 1182.23 1749.64 1182.23 1757.38C1182.23 1766.22 1180.65 1773.48 1177.5 1779.16C1174.34 1784.85 1170.04 1789.03 1164.59 1791.71C1159.29 1794.4 1153.12 1795.74 1146.1 1795.74Z" fill="white"/>
<path d="M1056.39 1795.74C1042.34 1795.74 1031.65 1790.69 1024.34 1780.59C1017.17 1770.32 1013.59 1753.67 1013.59 1730.62C1013.59 1708.2 1017.1 1691.78 1024.13 1681.37C1031.29 1670.79 1041.98 1665.5 1056.17 1665.5C1068.5 1665.5 1077.75 1670.08 1083.92 1679.23C1090.23 1688.23 1093.38 1703.15 1093.38 1723.99V1736.3H1032.08C1032.23 1750.83 1034.31 1761.48 1038.32 1768.27C1042.34 1775.06 1048.5 1778.45 1056.82 1778.45C1062.41 1778.45 1067 1776.01 1070.58 1771.11C1074.17 1766.06 1075.96 1759.19 1075.96 1750.51H1093.38C1093.38 1764.4 1089.94 1775.45 1083.06 1783.66C1076.32 1791.71 1067.43 1795.74 1056.39 1795.74ZM1032.3 1719.02H1074.89C1074.89 1707.18 1073.31 1698.18 1070.15 1692.02C1067 1685.86 1062.34 1682.79 1056.17 1682.79C1048.29 1682.79 1042.48 1685.86 1038.75 1692.02C1035.17 1698.02 1033.02 1707.02 1032.3 1719.02Z" fill="white"/>
<path d="M892.324 1792.9V1630.46H951.688C966.171 1630.46 977.14 1634.64 984.596 1643.01C992.053 1651.22 995.781 1662.03 995.781 1675.45C995.781 1685.55 993.487 1694.31 988.898 1701.73C984.31 1709 977.857 1714.21 969.54 1717.36L999.222 1792.9H978.144L950.828 1721.15H911.252V1792.9H892.324ZM911.252 1702.21H951.043C958.643 1702.21 964.665 1699.76 969.11 1694.87C973.699 1689.97 975.993 1683.5 975.993 1675.45C975.993 1667.4 973.842 1661.08 969.54 1656.51C965.239 1651.77 959.073 1649.4 951.043 1649.4H911.252V1702.21Z" fill="white"/>
<path d="M743.141 1792.9V1668.34H756.476L758.842 1682.79H760.132C763.287 1676.63 767.23 1672.21 771.962 1669.53C776.694 1666.84 781.856 1665.5 787.448 1665.5C795.909 1665.5 802.648 1668.34 807.667 1674.02C812.829 1679.55 815.41 1689.26 815.41 1703.15V1792.9H797.773V1704.57C797.773 1695.89 796.267 1690.13 793.256 1687.29C790.388 1684.29 786.588 1682.79 781.856 1682.79C776.264 1682.79 771.317 1685.79 767.015 1691.78C762.857 1697.78 760.778 1706.15 760.778 1716.89V1792.9H743.141Z" fill="white"/>
<path d="M669.143 1795.74C666.418 1795.74 663.336 1795.27 659.894 1794.32C656.453 1793.53 653.155 1791.95 650 1789.58C646.989 1787.06 644.48 1783.51 642.472 1778.93C640.465 1774.35 639.461 1768.27 639.461 1760.69C639.461 1749.17 641.899 1740.49 646.774 1734.65C651.793 1728.65 658.604 1724.54 667.207 1722.33C675.954 1720.12 685.776 1719.02 696.674 1719.02V1702.91C696.674 1696.92 695.455 1692.1 693.018 1688.47C690.723 1684.68 685.991 1682.79 678.822 1682.79C672.226 1682.79 667.637 1684.92 665.056 1689.18C662.619 1693.28 661.4 1697.7 661.4 1702.44V1705.28H643.978C643.834 1704.49 643.763 1703.7 643.763 1702.91C643.763 1702.13 643.763 1701.18 643.763 1700.07C643.763 1688.71 647.132 1680.1 653.872 1674.26C660.755 1668.42 669.501 1665.5 680.112 1665.5C691.584 1665.5 700.115 1668.58 705.708 1674.74C711.443 1680.73 714.311 1689.26 714.311 1700.31V1770.17C714.311 1773.17 714.956 1775.3 716.247 1776.56C717.537 1777.82 718.9 1778.45 720.334 1778.45H727.216V1791.95C726.213 1792.58 724.707 1793.21 722.699 1793.85C720.835 1794.48 718.469 1794.79 715.602 1794.79C711.013 1794.79 707.142 1793.37 703.987 1790.53C700.976 1787.69 698.897 1783.98 697.749 1779.4H696.674C693.806 1784.45 689.935 1788.48 685.059 1791.48C680.327 1794.32 675.022 1795.74 669.143 1795.74ZM673.23 1778.45C676.958 1778.45 680.614 1777.35 684.199 1775.14C687.784 1772.77 690.723 1769.3 693.018 1764.72C695.455 1760.14 696.674 1754.46 696.674 1747.67V1736.3C688.931 1736.3 682.12 1736.93 676.241 1738.2C670.505 1739.3 665.988 1741.51 662.69 1744.83C659.536 1748.14 657.958 1753.04 657.958 1759.51C657.958 1766.61 659.249 1771.59 661.83 1774.43C664.554 1777.11 668.354 1778.45 673.23 1778.45Z" fill="white"/>
<path d="M498.23 1792.9V1668.34H511.566L513.932 1682.79H515.222C518.234 1676.63 521.962 1672.21 526.407 1669.53C530.852 1666.84 535.727 1665.5 541.033 1665.5C546.625 1665.5 551.5 1666.92 555.659 1669.76C559.96 1672.45 563.115 1677.02 565.122 1683.5C568.134 1677.5 572.149 1673 577.167 1670C582.186 1667 587.348 1665.5 592.653 1665.5C597.959 1665.5 602.619 1666.76 606.634 1669.29C610.649 1671.66 613.732 1675.6 615.883 1681.13C618.177 1686.5 619.324 1693.84 619.324 1703.15V1792.9H601.687V1704.57C601.687 1695.89 600.253 1690.13 597.385 1687.29C594.661 1684.29 591.22 1682.79 587.061 1682.79C581.756 1682.79 577.167 1685.79 573.296 1691.78C569.568 1697.78 567.703 1706.15 567.703 1716.89V1792.9H550.066V1704.57C550.066 1695.89 548.632 1690.13 545.765 1687.29C543.04 1684.29 539.599 1682.79 535.44 1682.79C530.135 1682.79 525.546 1685.79 521.675 1691.78C517.803 1697.78 515.868 1706.15 515.868 1716.89V1792.9H498.23Z" fill="white"/>
<path d="M428.098 1795.74C419.638 1795.74 412.827 1792.98 407.665 1787.45C402.646 1781.77 400.137 1771.98 400.137 1758.09V1668.34H417.774V1756.67C417.774 1765.35 419.208 1771.19 422.076 1774.19C425.087 1777.04 428.958 1778.46 433.69 1778.46C439.282 1778.46 444.158 1775.46 448.316 1769.46C452.618 1763.46 454.769 1755.09 454.769 1744.36V1668.34H472.406V1792.9H459.07L456.704 1778.46H455.414C452.259 1784.61 448.316 1789.03 443.584 1791.72C438.852 1794.4 433.69 1795.74 428.098 1795.74Z" fill="white"/>
<path d="M275 1792.9V1630.46H293.928V1700.31H353.292V1630.46H372.219V1792.9H353.292V1719.26H293.928V1792.9H275Z" fill="white"/>
</svg>
