<svg width="47" height="47" viewBox="0 0 47 47" fill="none" xmlns="http://www.w3.org/2000/svg">
<circle cx="23.5" cy="23.5" r="23.5" fill="#000D3A"/>
<path d="M23.5 16.0227C22.5757 16.0227 21.6721 16.2968 20.9036 16.8103C20.1351 17.3238 19.5361 18.0537 19.1824 18.9076C18.8287 19.7616 18.7361 20.7012 18.9165 21.6077C19.0968 22.5143 19.5419 23.347 20.1954 24.0006C20.849 24.6541 21.6817 25.0992 22.5882 25.2795C23.4948 25.4599 24.4344 25.3673 25.2884 25.0136C26.1423 24.6599 26.8722 24.0609 27.3857 23.2924C27.8992 22.5239 28.1733 21.6203 28.1733 20.696C28.1733 19.4566 27.6809 18.2679 26.8045 17.3915C25.9281 16.5151 24.7394 16.0227 23.5 16.0227Z" fill="white"/>
<path d="M23.5 10.4148C20.912 10.4148 18.3821 11.1822 16.2303 12.62C14.0784 14.0578 12.4012 16.1015 11.4109 18.4925C10.4205 20.8835 10.1613 23.5145 10.6662 26.0528C11.1711 28.5911 12.4174 30.9226 14.2474 32.7526C16.0774 34.5826 18.4089 35.8289 20.9472 36.3338C23.4855 36.8387 26.1165 36.5796 28.5075 35.5892C30.8985 34.5988 32.9422 32.9216 34.38 30.7698C35.8178 28.6179 36.5853 26.088 36.5853 23.5C36.5813 20.0308 35.2014 16.7048 32.7483 14.2517C30.2952 11.7986 26.9692 10.4187 23.5 10.4148ZM30.9708 31.8428C30.9526 30.6165 30.4531 29.4465 29.5801 28.5852C28.7071 27.7238 27.5304 27.2402 26.304 27.2386H20.6961C19.4698 27.2405 18.2934 27.7242 17.4206 28.5855C16.5477 29.4468 16.0484 30.6166 16.0302 31.8428C14.3353 30.3293 13.14 28.3367 12.6027 26.1289C12.0654 23.921 12.2113 21.602 13.0212 19.479C13.8311 17.3559 15.2668 15.5289 17.1382 14.2399C19.0095 12.9509 21.2282 12.2607 23.5005 12.2607C25.7728 12.2607 27.9915 12.9509 29.8628 14.2399C31.7342 15.5289 33.1698 17.3559 33.9798 19.479C34.7897 21.602 34.9356 23.921 34.3983 26.1289C33.861 28.3367 32.6657 30.3293 30.9708 31.8428Z" fill="white"/>
</svg>
