<svg width="26" height="26" viewBox="0 0 26 26" fill="none" xmlns="http://www.w3.org/2000/svg">
<g clip-path="url(#clip0_2062_17774)">
<path d="M3.25 0C2.35117 0 1.625 0.726172 1.625 1.625V4.875C1.625 5.77383 2.35117 6.5 3.25 6.5H7.3125V8.125H4.41797C2.81328 8.125 1.44727 9.29805 1.20352 10.8875L0.0558594 18.4895C0.0203125 18.7281 0 18.9719 0 19.2156V22.75C0 24.5426 1.45742 26 3.25 26H22.75C24.5426 26 26 24.5426 26 22.75V19.2156C26 18.9719 25.9797 18.7281 25.9441 18.4844L24.7914 10.8875C24.5527 9.29805 23.1867 8.125 21.582 8.125H10.5625V6.5H14.625C15.5238 6.5 16.25 5.77383 16.25 4.875V1.625C16.25 0.726172 15.5238 0 14.625 0H3.25ZM4.875 2.4375H13C13.4469 2.4375 13.8125 2.80312 13.8125 3.25C13.8125 3.69688 13.4469 4.0625 13 4.0625H4.875C4.42812 4.0625 4.0625 3.69688 4.0625 3.25C4.0625 2.80312 4.42812 2.4375 4.875 2.4375ZM3.25 21.9375C3.25 21.4906 3.61562 21.125 4.0625 21.125H21.9375C22.3844 21.125 22.75 21.4906 22.75 21.9375C22.75 22.3844 22.3844 22.75 21.9375 22.75H4.0625C3.61562 22.75 3.25 22.3844 3.25 21.9375ZM5.6875 13.4062C5.36427 13.4062 5.05427 13.2778 4.82571 13.0493C4.59715 12.8207 4.46875 12.5107 4.46875 12.1875C4.46875 11.8643 4.59715 11.5543 4.82571 11.3257C5.05427 11.0972 5.36427 10.9688 5.6875 10.9688C6.01073 10.9688 6.32073 11.0972 6.54929 11.3257C6.77785 11.5543 6.90625 11.8643 6.90625 12.1875C6.90625 12.5107 6.77785 12.8207 6.54929 13.0493C6.32073 13.2778 6.01073 13.4062 5.6875 13.4062ZM11.7812 12.1875C11.7812 12.5107 11.6528 12.8207 11.4243 13.0493C11.1957 13.2778 10.8857 13.4062 10.5625 13.4062C10.2393 13.4062 9.92927 13.2778 9.70071 13.0493C9.47215 12.8207 9.34375 12.5107 9.34375 12.1875C9.34375 11.8643 9.47215 11.5543 9.70071 11.3257C9.92927 11.0972 10.2393 10.9688 10.5625 10.9688C10.8857 10.9688 11.1957 11.0972 11.4243 11.3257C11.6528 11.5543 11.7812 11.8643 11.7812 12.1875ZM8.125 17.4688C7.80177 17.4688 7.49177 17.3403 7.26321 17.1118C7.03465 16.8832 6.90625 16.5732 6.90625 16.25C6.90625 15.9268 7.03465 15.6168 7.26321 15.3882C7.49177 15.1597 7.80177 15.0312 8.125 15.0312C8.44823 15.0312 8.75823 15.1597 8.98679 15.3882C9.21535 15.6168 9.34375 15.9268 9.34375 16.25C9.34375 16.5732 9.21535 16.8832 8.98679 17.1118C8.75823 17.3403 8.44823 17.4688 8.125 17.4688ZM16.6562 12.1875C16.6562 12.5107 16.5278 12.8207 16.2993 13.0493C16.0707 13.2778 15.7607 13.4062 15.4375 13.4062C15.1143 13.4062 14.8043 13.2778 14.5757 13.0493C14.3472 12.8207 14.2188 12.5107 14.2188 12.1875C14.2188 11.8643 14.3472 11.5543 14.5757 11.3257C14.8043 11.0972 15.1143 10.9688 15.4375 10.9688C15.7607 10.9688 16.0707 11.0972 16.2993 11.3257C16.5278 11.5543 16.6562 11.8643 16.6562 12.1875ZM13 17.4688C12.6768 17.4688 12.3668 17.3403 12.1382 17.1118C11.9097 16.8832 11.7813 16.5732 11.7812 16.25C11.7812 15.9268 11.9097 15.6168 12.1382 15.3882C12.3668 15.1597 12.6768 15.0312 13 15.0312C13.3232 15.0312 13.6332 15.1597 13.8618 15.3882C14.0903 15.6168 14.2188 15.9268 14.2188 16.25C14.2188 16.5732 14.0903 16.8832 13.8618 17.1118C13.6332 17.3403 13.3232 17.4688 13 17.4688ZM21.5312 12.1875C21.5313 12.3475 21.4997 12.506 21.4385 12.6539C21.3772 12.8018 21.2875 12.9361 21.1743 13.0493C21.0611 13.1625 20.9268 13.2522 20.7789 13.3135C20.631 13.3747 20.4725 13.4063 20.3125 13.4062C20.1525 13.4063 19.994 13.3747 19.8461 13.3135C19.6982 13.2522 19.5639 13.1625 19.4507 13.0493C19.3375 12.9361 19.2478 12.8018 19.1865 12.6539C19.1253 12.506 19.0937 12.3475 19.0938 12.1875C19.0937 12.0275 19.1253 11.869 19.1865 11.7211C19.2478 11.5732 19.3375 11.4389 19.4507 11.3257C19.5639 11.2125 19.6982 11.1228 19.8461 11.0615C19.994 11.0003 20.1525 10.9688 20.3125 10.9688C20.4725 10.9687 20.631 11.0003 20.7789 11.0615C20.9268 11.1228 21.0611 11.2125 21.1743 11.3257C21.2875 11.4389 21.3772 11.5732 21.4385 11.7211C21.4997 11.869 21.5313 12.0275 21.5312 12.1875ZM17.875 17.4688C17.5518 17.4688 17.2418 17.3403 17.0132 17.1118C16.7847 16.8832 16.6562 16.5732 16.6562 16.25C16.6562 15.9268 16.7847 15.6168 17.0132 15.3882C17.2418 15.1597 17.5518 15.0312 17.875 15.0312C18.1982 15.0312 18.5082 15.1597 18.7368 15.3882C18.9653 15.6168 19.0938 15.9268 19.0938 16.25C19.0938 16.5732 18.9653 16.8832 18.7368 17.1118C18.5082 17.3403 18.1982 17.4688 17.875 17.4688Z" fill="#E8EAED"/>
</g>
<defs>
<clipPath id="clip0_2062_17774">
<rect width="26" height="26" fill="white"/>
</clipPath>
</defs>
</svg>
