<svg width="75" height="75" viewBox="0 0 75 75" fill="none" xmlns="http://www.w3.org/2000/svg">
<circle cx="37.5" cy="37.5" r="37.5" fill="#0B6ECA"/>
<path d="M30.374 25.4438H33.3476V42.9977C33.3476 44.5644 33.0598 45.8953 32.4843 46.9904C31.9088 48.0855 31.0974 48.9169 30.0503 49.4844C29.0031 50.052 27.7681 50.3357 26.3453 50.3357C25.0023 50.3357 23.8073 50.0919 22.7602 49.6043C21.713 49.1087 20.8897 48.4053 20.2901 47.494C19.6906 46.5828 19.3909 45.4996 19.3909 44.2447H22.3165C22.3165 44.9401 22.4884 45.5476 22.8321 46.0672C23.1838 46.5788 23.6634 46.9784 24.2709 47.2662C24.8784 47.554 25.5699 47.6979 26.3453 47.6979C27.2006 47.6979 27.928 47.518 28.5275 47.1583C29.127 46.7986 29.5826 46.271 29.8944 45.5756C30.2141 44.8721 30.374 44.0128 30.374 42.9977V25.4438ZM52.7359 31.5829C52.592 30.3679 52.0085 29.4246 50.9853 28.7532C49.9622 28.0817 48.7072 27.746 47.2204 27.746C46.1333 27.746 45.182 27.9218 44.3667 28.2736C43.5593 28.6253 42.9278 29.1089 42.4722 29.7244C42.0246 30.3399 41.8008 31.0393 41.8008 31.8227C41.8008 32.4782 41.9566 33.0417 42.2684 33.5133C42.5881 33.977 42.9958 34.3646 43.4914 34.6764C43.987 34.9801 44.5066 35.2319 45.0501 35.4318C45.5937 35.6236 46.0933 35.7795 46.5489 35.8994L49.0429 36.5709C49.6824 36.7387 50.3938 36.9705 51.1772 37.2663C51.9685 37.5621 52.7239 37.9657 53.4433 38.4773C54.1708 38.9809 54.7703 39.6284 55.2419 40.4197C55.7135 41.2111 55.9493 42.1823 55.9493 43.3334C55.9493 44.6603 55.6016 45.8593 54.9062 46.9305C54.2187 48.0016 53.2115 48.8529 51.8846 49.4844C50.5657 50.1159 48.963 50.4317 47.0765 50.4317C45.3179 50.4317 43.7951 50.1479 42.5082 49.5803C41.2292 49.0128 40.222 48.2214 39.4866 47.2063C38.7592 46.1911 38.3476 45.012 38.2516 43.6691H41.3211C41.4011 44.5964 41.7128 45.3637 42.2564 45.9713C42.8079 46.5708 43.5034 47.0184 44.3427 47.3142C45.19 47.6019 46.1013 47.7458 47.0765 47.7458C48.2116 47.7458 49.2308 47.562 50.134 47.1943C51.0373 46.8186 51.7527 46.299 52.2803 45.6355C52.8079 44.9641 53.0716 44.1807 53.0716 43.2854C53.0716 42.4701 52.8438 41.8066 52.3882 41.295C51.9326 40.7835 51.3331 40.3678 50.5897 40.048C49.8463 39.7283 49.0429 39.4485 48.1796 39.2087L45.158 38.3454C43.2396 37.7939 41.7208 37.0065 40.6017 35.9833C39.4826 34.9602 38.9231 33.6212 38.9231 31.9666C38.9231 30.5917 39.2948 29.3927 40.0382 28.3695C40.7896 27.3383 41.7968 26.539 43.0597 25.9714C44.3307 25.3959 45.7496 25.1081 47.3163 25.1081C48.899 25.1081 50.3059 25.3919 51.5369 25.9594C52.7679 26.519 53.7431 27.2864 54.4625 28.2616C55.1899 29.2368 55.5736 30.3439 55.6136 31.5829H52.7359Z" fill="white"/>
</svg>
