<svg width="60" height="60" viewBox="0 0 60 60" fill="none" xmlns="http://www.w3.org/2000/svg">
<circle cx="30" cy="30" r="30" fill="#45E3FF"/>
<path d="M18.3333 45C17.4167 45 16.6319 44.6736 15.9792 44.0208C15.3264 43.3681 15 42.5833 15 41.6667V18.3333C15 17.4167 15.3264 16.6319 15.9792 15.9792C16.6319 15.3264 17.4167 15 18.3333 15H41.6667C42.5833 15 43.3681 15.3264 44.0208 15.9792C44.6736 16.6319 45 17.4167 45 18.3333V22.5H41.6667V18.3333H18.3333V41.6667H41.6667V37.5H45V41.6667C45 42.5833 44.6736 43.3681 44.0208 44.0208C43.3681 44.6736 42.5833 45 41.6667 45H18.3333ZM31.6667 38.3333C30.75 38.3333 29.9653 38.0069 29.3125 37.3542C28.6597 36.7014 28.3333 35.9167 28.3333 35V25C28.3333 24.0833 28.6597 23.2986 29.3125 22.6458C29.9653 21.9931 30.75 21.6667 31.6667 21.6667H43.3333C44.25 21.6667 45.0347 21.9931 45.6875 22.6458C46.3403 23.2986 46.6667 24.0833 46.6667 25V35C46.6667 35.9167 46.3403 36.7014 45.6875 37.3542C45.0347 38.0069 44.25 38.3333 43.3333 38.3333H31.6667ZM43.3333 35V25H31.6667V35H43.3333ZM36.6667 32.5C37.3611 32.5 37.9514 32.2569 38.4375 31.7708C38.9236 31.2847 39.1667 30.6944 39.1667 30C39.1667 29.3056 38.9236 28.7153 38.4375 28.2292C37.9514 27.7431 37.3611 27.5 36.6667 27.5C35.9722 27.5 35.3819 27.7431 34.8958 28.2292C34.4097 28.7153 34.1667 29.3056 34.1667 30C34.1667 30.6944 34.4097 31.2847 34.8958 31.7708C35.3819 32.2569 35.9722 32.5 36.6667 32.5Z" fill="white"/>
</svg>
