<svg width="72" height="39" viewBox="0 0 72 39" fill="none" xmlns="http://www.w3.org/2000/svg">
<g clip-path="url(#clip0_2887_18608)">
<path d="M43.5806 13.6133H43.5638C43.5508 13.7365 43.4652 13.8506 43.3044 13.8506C43.2487 13.8506 43.202 13.835 43.1644 13.8117C42.9466 13.8104 42.7274 13.8065 42.5096 13.8168C42.2438 13.8285 41.978 13.8207 41.7135 13.8376C41.5656 13.8467 41.4541 13.7118 41.4438 13.5744C40.1199 13.2684 38.9944 12.4437 38.2891 11.3286V38.9987H46.8974V11.3442C46.1622 12.4995 44.9745 13.341 43.5806 13.6133Z" fill="#4A5568"/>
<path d="M16.4633 10.8385C18.6105 10.8385 20.5334 11.2664 22.2281 12.1222C23.9228 12.978 25.257 14.2876 26.2308 16.0497C27.2033 17.8118 27.6921 20.0692 27.6921 22.822V38.3284H19.8371V24.0291C19.8371 21.8482 19.3587 20.2365 18.4031 19.1953C17.4461 18.1554 16.0951 17.6355 14.3498 17.6355C13.1076 17.6355 11.9912 17.9052 11.0019 18.4407C10.0113 18.9775 9.23978 19.7671 8.68612 20.807C8.13246 21.8482 7.85498 23.2239 7.85498 24.9355V38.3284H0V0.971191H7.85368V18.7441L6.09156 16.4789C7.06403 14.6662 8.45791 13.2736 10.2706 12.2998C12.0833 11.3274 14.1475 10.8398 16.4633 10.8398V10.8385Z" fill="#4A5568"/>
<path d="M58.702 38.7315C56.3862 38.7315 54.1715 38.454 52.0567 37.9003C49.9419 37.3467 48.2472 36.6504 46.9727 35.8102L49.54 30.2217C50.8146 30.9595 52.3005 31.5728 53.9952 32.059C55.6899 32.5465 57.36 32.789 59.0054 32.789C60.8181 32.789 62.1017 32.5712 62.8564 32.1342C63.611 31.6985 63.9896 31.0943 63.9896 30.3215C63.9896 29.6849 63.6953 29.2051 63.1092 28.8875C62.5218 28.5685 61.749 28.326 60.7934 28.1574C59.8378 27.9889 58.7707 27.8216 57.5959 27.6531C56.4212 27.4858 55.2555 27.2511 54.0963 26.9477C52.9384 26.6456 51.8635 26.2177 50.8742 25.664C49.8836 25.1104 49.0952 24.348 48.5079 23.3742C47.9205 22.4017 47.6262 21.1414 47.6262 19.5984C47.6262 17.8869 48.1305 16.3685 49.1367 15.042C50.1442 13.7156 51.5692 12.6835 53.4169 11.9457C55.2633 11.2079 57.4948 10.8384 60.1127 10.8384C61.9915 10.8384 63.8807 11.0484 65.7764 11.4685C67.6733 11.8886 69.276 12.4669 70.5843 13.2047L67.9158 18.7932C66.6399 18.0554 65.3394 17.5342 64.0143 17.2334C62.6878 16.9312 61.421 16.7795 60.2125 16.7795C58.3998 16.7795 57.0915 17.0155 56.285 17.4849C55.4798 17.9556 55.0766 18.5598 55.0766 19.2976C55.0766 19.9692 55.3787 20.4801 55.9829 20.8328C56.5872 21.1855 57.3755 21.4461 58.3493 21.6134C59.3218 21.7819 60.3967 21.9492 61.5714 22.1165C62.7461 22.285 63.904 22.5197 65.0451 22.8218C66.1861 23.1239 67.2519 23.5518 68.2426 24.1055C69.2319 24.6591 70.0215 25.4229 70.6089 26.3953C71.195 27.3691 71.4893 28.6281 71.4893 30.1711C71.4893 31.8165 70.9862 33.2843 69.98 34.5758C68.9726 35.8685 67.5203 36.8838 65.6247 37.6215C63.7277 38.3593 61.421 38.7289 58.702 38.7289V38.7315Z" fill="#4A5568"/>
<path opacity="0.9" d="M27.6906 38.3282V23.2056C27.6906 23.2056 27.3963 20.4529 30.2865 18.6571C31.6739 17.7948 34.9427 18.0762 37.3389 18.0762V10.8397C37.3389 10.8397 19.811 9.22927 19.811 23.2069L19.837 38.3295H27.6919L27.6906 38.3282Z" fill="#00A3E0"/>
<path d="M25.1299 10.2071C27.9485 10.2071 30.2334 7.92213 30.2334 5.10353C30.2334 2.28493 27.9485 0 25.1299 0C22.3113 0 20.0264 2.28493 20.0264 5.10353C20.0264 7.92213 22.3113 10.2071 25.1299 10.2071Z" fill="#00A3E0"/>
<path d="M42.5928 12.0054C45.4114 12.0054 47.6963 9.72047 47.6963 6.90187C47.6963 4.08327 45.4114 1.79834 42.5928 1.79834C39.7742 1.79834 37.4893 4.08327 37.4893 6.90187C37.4893 9.72047 39.7742 12.0054 42.5928 12.0054Z" fill="#00A3E0"/>
<path d="M43.581 13.6133L44.5872 20.029L42.5489 22.2216L40.6001 19.9953L41.4455 13.5757L43.581 13.6133Z" fill="#212529"/>
</g>
<defs>
<clipPath id="clip0_2887_18608">
<rect width="71.4896" height="39" fill="white"/>
</clipPath>
</defs>
</svg>
