<svg width="60" height="60" viewBox="0 0 60 60" fill="none" xmlns="http://www.w3.org/2000/svg">
<circle cx="30" cy="30" r="30" fill="#FF5252"/>
<path d="M26.625 30C25.9769 30 25.4446 29.7546 25.0279 29.2637C24.6113 28.7732 24.4631 28.2131 24.5833 27.5833L25.1667 24.0833C25.3889 22.8889 25.9514 21.9097 26.8542 21.1458C27.7569 20.3819 28.8056 20 30 20C31.2222 20 32.2847 20.3819 33.1875 21.1458C34.0903 21.9097 34.6528 22.8889 34.875 24.0833L35.4583 27.5833C35.5786 28.2131 35.4304 28.7732 35.0138 29.2637C34.5971 29.7546 34.0647 30 33.4167 30H26.625ZM27.4583 27.2221H32.5833L32.1388 24.5417C32.0463 24.0231 31.801 23.5994 31.4029 23.2708C31.0046 22.9422 30.5415 22.7779 30.0138 22.7779C29.486 22.7779 29.0254 22.9422 28.6321 23.2708C28.2385 23.5994 27.9954 24.0231 27.9029 24.5417L27.4583 27.2221ZM15.5833 32.5167C15 32.5425 14.4944 32.4276 14.0667 32.1721C13.6389 31.9165 13.3601 31.5204 13.2304 30.9837C13.1788 30.7537 13.1714 30.5231 13.2083 30.2917C13.2453 30.0603 13.3101 29.8396 13.4029 29.6296C13.4029 29.656 13.389 29.6035 13.3613 29.4721C13.3426 29.4351 13.2149 29.129 12.9779 28.5537C12.9185 28.2401 12.949 27.9537 13.0696 27.6946C13.1899 27.4351 13.3611 27.1943 13.5833 26.9721L13.6667 26.8888C13.7222 26.3982 13.9215 25.9908 14.2646 25.6667C14.6076 25.3425 15.0333 25.1804 15.5417 25.1804C15.5881 25.1804 15.8257 25.2268 16.2546 25.3196L16.375 25.2779C16.5139 25.1574 16.6821 25.0624 16.8796 24.9929C17.0771 24.9235 17.2869 24.8888 17.5092 24.8888C17.7808 24.8888 18.0301 24.9374 18.2571 25.0346C18.4838 25.1318 18.6601 25.2696 18.7863 25.4479C18.8115 25.4479 18.8304 25.4543 18.8429 25.4671C18.8554 25.4799 18.8743 25.4862 18.8996 25.4862C19.2524 25.5115 19.561 25.6197 19.8254 25.8108C20.0899 26.0017 20.2915 26.2622 20.4304 26.5925C20.486 26.7703 20.5068 26.9418 20.4929 27.1071C20.479 27.2721 20.4443 27.4308 20.3888 27.5833C20.3888 27.6297 20.4026 27.676 20.4304 27.7221C20.6076 27.901 20.7469 28.0989 20.8483 28.3158C20.9494 28.5328 21 28.7563 21 28.9863C21 29.0601 20.926 29.3257 20.7779 29.7829C20.7501 29.8368 20.7501 29.8907 20.7779 29.9446C20.7963 30.0185 20.8147 30.2221 20.8333 30.5554C20.8333 31.0832 20.6114 31.5421 20.1675 31.9321C19.7236 32.3218 19.1847 32.5167 18.5508 32.5167H15.5833ZM43.5529 32.5C42.7121 32.5 41.9931 32.1996 41.3958 31.5988C40.7986 30.9982 40.5 30.2761 40.5 29.4325C40.5 29.1256 40.5486 28.8356 40.6458 28.5625C40.7431 28.2894 40.8657 28.0325 41.0138 27.7917L39.9304 26.8333C39.6899 26.6111 39.646 26.3518 39.7988 26.0554C39.9515 25.7593 40.181 25.6112 40.4871 25.6112H43.5492C44.3911 25.6112 45.1119 25.9114 45.7117 26.5117C46.3114 27.1122 46.6113 27.834 46.6113 28.6771V29.4438C46.6113 30.2868 46.3118 31.0069 45.7129 31.6042C45.114 32.2014 44.394 32.5 43.5529 32.5ZM10 40V37.6529C10 36.5146 10.5949 35.6026 11.7846 34.9171C12.9746 34.2315 14.5131 33.8887 16.4 33.8887C16.7456 33.8887 17.0778 33.8957 17.3967 33.9096C17.7156 33.9235 18.0278 33.9557 18.3333 34.0063C18.0556 34.5113 17.8472 35.0329 17.7083 35.5713C17.5694 36.1096 17.5 36.6831 17.5 37.2917V40H10ZM20 40V37.2917C20 35.4861 20.9236 34.0278 22.7708 32.9167C24.6181 31.8056 27.0278 31.25 30 31.25C33 31.25 35.4167 31.8056 37.25 32.9167C39.0833 34.0278 40 35.4861 40 37.2917V40H20ZM43.6113 33.8887C45.5279 33.8887 47.0718 34.2315 48.2429 34.9171C49.4143 35.6026 50 36.5146 50 37.6529V40H42.5V37.2917C42.5 36.6831 42.4375 36.1096 42.3125 35.5713C42.1875 35.0329 41.9907 34.5113 41.7221 34.0063C42.0276 33.9557 42.3371 33.9235 42.6504 33.9096C42.964 33.8957 43.2843 33.8887 43.6113 33.8887ZM29.9946 34.0279C27.989 34.0279 26.3149 34.3196 24.9721 34.9029C23.6296 35.4863 22.9212 36.2131 22.8471 37.0833V37.2221H37.1667V37.0554C37.0833 36.2037 36.3774 35.4863 35.0488 34.9029C33.7199 34.3196 32.0351 34.0279 29.9946 34.0279Z" fill="white"/>
</svg>
