<svg width="1167" height="858" viewBox="0 0 1167 858" fill="none" xmlns="http://www.w3.org/2000/svg">
<path d="M245 649C89.7998 683 91.9998 802.5 112.5 858H1223.5C1250 698.167 1284.7 366.9 1211.5 320.5C1120 262.5 811.5 356 776 465C740.5 574 439 606.5 245 649Z" fill="#0B6ECA"/>
<path d="M319.229 236.067L316.817 234.756V183.683L319.229 184.994V236.067Z" fill="#2E8DB7"/>
<path d="M319.229 184.994L316.817 183.683L394.685 138.011L397.097 139.322L319.229 184.994Z" fill="#4FC1E0"/>
<path d="M397.097 139.322L319.229 184.994V236.066L330.241 229.669V249.123L341.567 223.062L397.097 190.762V139.322Z" fill="#379CD3"/>
<path d="M327.619 231.19V247.55L330.241 249.123V229.669L327.619 231.19Z" fill="#2E8DB7"/>
<path d="M390.647 159.301V178.754L325.731 216.298L325.679 197.159L390.647 159.301Z" fill="#B3BAE8"/>
<path d="M386.242 167.376V169.63L330.346 202.246V199.991L386.242 167.376Z" fill="white"/>
<path d="M386.242 172.409V175.66L330.346 208.276V205.025L386.242 172.409Z" fill="white"/>
<path d="M564.891 90.7666V127.944L440.618 199.781L440.565 163.181L564.891 90.7666Z" fill="#0066CF"/>
<path d="M558.913 106.812V110.22L475.173 159.038V155.682L558.913 106.812Z" fill="white"/>
<path d="M558.913 114.363V119.292L475.173 168.11V163.285L558.913 114.363Z" fill="white"/>
<path d="M464.372 172.357C464.372 172.357 466.679 173.72 467.57 177.024L450.948 186.829C450.948 186.829 451.473 181.009 453.046 179.593L464.372 172.357Z" fill="#EBFBFF"/>
<path d="M451.001 168.949C451.001 172.829 453.413 175.975 456.402 175.975C459.443 175.975 461.855 172.829 461.855 168.949C461.855 165.068 459.443 161.922 456.402 161.922C453.413 161.922 451.001 165.068 451.001 168.949Z" fill="#EBFBFF"/>
<path d="M564.891 90.7666L558.913 86.7815L433.906 159.248L440.566 163.181L564.891 90.7666Z" fill="#057BE5"/>
<path d="M433.906 159.248V195.114L440.618 199.781L440.566 163.18L433.906 159.248Z" fill="#0D93F7"/>
<path d="M901.53 375.546V412.723L1025.8 484.613L1025.86 448.012L901.53 375.546Z" fill="#0066CF"/>
<path d="M907.508 391.591V395.052L991.248 443.87V440.514L907.508 391.591Z" fill="white"/>
<path d="M907.508 399.195V404.071L991.248 452.941V448.065L907.508 399.195Z" fill="white"/>
<path d="M1002.05 457.189C1002.05 457.189 999.69 458.552 998.799 461.855L1015.47 471.661C1015.47 471.661 1014.95 465.841 1013.38 464.425L1002.05 457.189Z" fill="#EBFBFF"/>
<path d="M1015.42 453.78C1015.42 457.661 1013.01 460.807 1009.97 460.807C1006.98 460.807 1004.57 457.661 1004.57 453.78C1004.57 449.9 1006.98 446.754 1009.97 446.754C1013.01 446.754 1015.42 449.9 1015.42 453.78Z" fill="#EBFBFF"/>
<path d="M901.53 375.546L907.508 371.613L1032.52 444.027L1025.86 448.012L901.53 375.546Z" fill="#057BE5"/>
<path d="M1032.52 444.027V479.946L1025.8 484.613L1025.86 448.012L1032.52 444.027Z" fill="#0D93F7"/>
<path d="M937.396 307.746L903.837 309.582L870.278 307.432C870.278 327.357 876.151 343.036 879.664 349.223C880.556 351.897 882.758 354.414 886.324 356.512C895.867 362.017 911.598 362.017 921.246 356.512C924.759 354.467 927.014 352.002 927.958 349.38C931.419 343.193 937.396 327.777 937.396 307.746Z" fill="#103CB5"/>
<path d="M880.084 294.113C867.028 301.664 866.975 314.039 879.979 321.589C892.983 329.088 914.377 329.088 927.539 321.589C940.648 314.039 940.7 301.664 927.643 294.113C914.587 286.51 893.193 286.51 880.084 294.113Z" fill="#1B48EA"/>
<path d="M884.856 296.84C874.421 302.922 874.369 312.78 884.751 318.81C895.186 324.841 912.28 324.841 922.767 318.81C933.307 312.78 933.307 302.922 922.872 296.84C912.437 290.757 895.343 290.757 884.856 296.84Z" fill="#0D348C"/>
<path d="M895.868 247.865C895.553 247.76 895.186 247.917 895.081 248.232L872.586 306.75C872.481 307.117 872.639 307.484 872.953 307.589C873.058 307.624 873.145 307.642 873.215 307.642C873.478 307.642 873.687 307.484 873.792 307.222L896.235 248.704C896.392 248.389 896.235 248.022 895.868 247.865Z" fill="#42413E"/>
<path d="M935.194 306.75L912.752 248.232C912.594 247.917 912.227 247.76 911.913 247.865C911.598 248.022 911.388 248.389 911.546 248.704L933.988 307.222C934.093 307.484 934.303 307.642 934.565 307.642C934.67 307.642 934.757 307.624 934.827 307.589C935.142 307.484 935.299 307.117 935.194 306.75Z" fill="#42413E"/>
<path d="M903.838 253.58C903.471 253.58 903.209 253.895 903.209 254.209V324.631C903.209 324.998 903.471 325.312 903.838 325.312C904.205 325.312 904.467 324.998 904.467 324.631V254.209C904.467 253.895 904.205 253.58 903.838 253.58Z" fill="#42413E"/>
<path d="M747.945 189.765L714.386 191.653L680.827 189.503C680.827 209.429 686.7 225.055 690.213 231.295C691.105 233.969 693.307 236.486 696.873 238.531C706.416 244.089 722.147 244.089 731.795 238.531C735.308 236.538 737.563 234.021 738.507 231.399C741.967 225.264 747.945 209.848 747.945 189.765Z" fill="#103CB5"/>
<path d="M690.633 176.132C677.576 183.735 677.524 196.11 690.528 203.661C703.532 211.159 724.926 211.159 738.087 203.661C751.196 196.11 751.249 183.735 738.192 176.132C725.136 168.581 703.742 168.581 690.633 176.132Z" fill="#1B48EA"/>
<path d="M695.405 178.911C684.97 184.941 684.918 194.852 695.3 200.882C705.735 206.912 722.829 206.912 733.316 200.882C743.803 194.852 743.856 184.941 733.421 178.911C722.934 172.829 705.84 172.829 695.405 178.911Z" fill="#0D348C"/>
<path d="M706.416 129.936C706.102 129.831 705.735 129.989 705.577 130.303L683.135 188.822C683.03 189.136 683.187 189.503 683.502 189.661C683.572 189.696 683.659 189.713 683.764 189.713C683.974 189.713 684.236 189.556 684.341 189.294L706.783 130.775C706.888 130.408 706.731 130.041 706.416 129.936Z" fill="#42413E"/>
<path d="M745.743 188.822L723.249 130.303C723.144 129.989 722.777 129.831 722.462 129.936C722.095 130.041 721.938 130.408 722.095 130.775L744.538 189.294C744.642 189.556 744.852 189.713 745.114 189.713C745.184 189.713 745.272 189.696 745.376 189.661C745.691 189.503 745.848 189.136 745.743 188.822Z" fill="#42413E"/>
<path d="M714.387 135.652C714.02 135.652 713.758 135.914 713.758 136.281V206.702C713.758 207.069 714.02 207.331 714.387 207.331C714.754 207.331 715.016 207.069 715.016 206.702V136.281C715.016 135.914 714.754 135.652 714.387 135.652Z" fill="#42413E"/>
<path d="M848.517 411.569V386.033H765.773V412.513C766.14 418.386 770.126 424.154 777.729 428.559C793.774 437.84 820.149 437.84 836.352 428.559C844.48 423.892 848.517 417.757 848.517 411.569Z" fill="#103CB5"/>
<path d="M777.886 369.096C761.789 378.482 761.684 393.741 777.729 403.022C793.775 412.304 820.15 412.304 836.353 403.022C852.555 393.741 852.608 378.482 836.51 369.096C820.36 359.763 793.984 359.763 777.886 369.096Z" fill="#1B48EA"/>
<path d="M713.023 115.516C711.817 114.52 709.929 114.52 707.884 115.779C704.109 117.981 701.067 123.434 701.067 127.786C701.067 130.146 701.906 131.772 703.322 132.401L795.19 190.447L805.257 173.72L713.023 115.516Z" fill="#BABABA"/>
<path d="M793.512 186.2C793.512 190.605 796.605 192.387 800.328 190.238C804.104 188.088 807.145 182.687 807.145 178.23C807.145 173.72 804.104 171.937 800.328 174.14C796.605 176.394 793.512 181.795 793.512 186.2Z" fill="#5E5E5E"/>
<path d="M823.925 384.932V147.922H790.366V384.879C790.419 387.396 792.044 389.966 795.4 391.906C802.007 395.734 812.651 395.734 819.101 391.906C822.352 389.966 823.925 387.449 823.925 384.984V384.932Z" fill="#F7F7F7"/>
<path d="M795.243 140.948C788.689 144.776 788.794 151.015 795.4 154.843C802.007 158.724 812.652 158.724 819.101 154.843C825.551 151.015 825.499 144.776 818.997 140.948C812.442 137.172 801.745 137.172 795.243 140.948Z" fill="#A0A0A0"/>
<path d="M823.349 183.421C822.09 182.425 820.255 182.425 818.157 183.683C814.435 185.885 811.341 191.339 811.341 195.691C811.341 198.051 812.232 199.676 813.596 200.358L905.516 258.352L915.583 241.677L823.349 183.421Z" fill="#BABABA"/>
<path d="M903.838 254.105C903.838 258.509 906.932 260.344 910.655 258.142C914.378 255.992 917.471 250.591 917.471 246.134C917.471 241.625 914.378 239.842 910.655 242.044C906.932 244.299 903.838 249.7 903.838 254.105Z" fill="#E2E2E2"/>
<path d="M831.371 147.922V132.978H782.92V148.446H782.972C783.182 151.854 785.489 155.263 789.946 157.832C799.332 163.285 814.749 163.285 824.239 157.832C828.959 155.105 831.371 151.487 831.371 147.922Z" fill="#103CB5"/>
<path d="M790.051 123.067C780.613 128.573 780.56 137.487 789.946 142.888C799.332 148.341 814.749 148.341 824.239 142.888C833.678 137.487 833.73 128.573 824.292 123.067C814.906 117.614 799.437 117.614 790.051 123.067Z" fill="#000D3A"/>
<path d="M343.611 483.564V466.889H404.017L544.755 386.243C561.483 376.647 588.854 376.647 605.581 386.191L747.001 466.837H805.257V481.047C805.834 487.759 801.744 494.628 792.882 499.819L605.424 608.886C596.929 613.815 585.708 616.227 574.487 616.174H574.434C563.685 616.122 552.935 613.762 544.755 609.096L356.144 500.973C347.754 496.201 343.611 489.909 343.611 483.564Z" fill="#C6C6C6"/>
<path d="M544.756 341.096C561.483 331.552 588.854 331.5 605.581 341.043L792.725 447.855C809.452 457.398 809.505 473.129 792.882 482.83L605.424 591.897C588.75 601.597 561.483 601.702 544.756 592.106L356.144 484.036C339.417 474.44 339.417 458.762 356.144 449.218L544.756 341.096Z" fill="#F7F7F7"/>
<path d="M407.95 471.084V438.784H451.524L553.04 380.58C565.101 373.658 584.816 373.658 596.877 380.527L698.865 438.731H740.918V469.301C741.338 474.125 738.401 479.107 732.004 482.83L596.772 561.484C590.689 565.049 582.562 566.78 574.487 566.78H574.434C566.674 566.727 558.966 564.997 553.04 561.641L416.969 483.669C410.991 480.208 407.95 475.646 407.95 471.084Z" fill="#C6C6C6"/>
<path d="M553.041 348.227C565.101 341.358 584.817 341.305 596.877 348.227L731.9 425.255C743.96 432.124 744.012 443.451 732.005 450.477L596.772 529.131C584.765 536.157 565.101 536.21 553.041 529.288L416.97 451.316C404.962 444.447 404.962 433.121 416.97 426.199L553.041 348.227Z" fill="#FCFCFC"/>
<path d="M470.717 265.903V436.11L451.473 447.803V276.39L470.717 265.903Z" fill="#D8D8D8"/>
<path d="M432.176 265.903V436.11L451.472 447.803V276.39L432.176 265.903Z" fill="#E8E8E8"/>
<path d="M470.716 265.903L451.472 254.314L432.176 265.903L451.472 276.39L470.716 265.903Z" fill="#A0A0A0"/>
<path d="M528.763 233.812V404.019L509.519 415.764V244.299L528.763 233.812Z" fill="#D8D8D8"/>
<path d="M490.274 233.812V404.019L509.518 415.764V244.299L490.274 233.812Z" fill="#E8E8E8"/>
<path d="M528.762 233.812L509.518 222.276L490.274 233.812L509.518 244.299L528.762 233.812Z" fill="#A0A0A0"/>
<path d="M584.397 200.358V370.565L565.153 382.258V210.845L584.397 200.358Z" fill="#A8A8A8"/>
<path d="M545.909 200.358V370.565L565.153 382.258V210.845L545.909 200.358Z" fill="#E8E8E8"/>
<path d="M584.397 200.358L565.153 188.769L545.909 200.358L565.153 210.845L584.397 200.358Z" fill="#A0A0A0"/>
<path d="M602.54 335.59V505.797L583.296 517.49V346.077L602.54 335.59Z" fill="#D8D8D8"/>
<path d="M564.052 335.59V505.797L583.296 517.49V346.077L564.052 335.59Z" fill="#E8E8E8"/>
<path d="M602.54 335.59L583.296 324.054L564.052 335.59L583.296 346.077L602.54 335.59Z" fill="#A0A0A0"/>
<path d="M660.639 303.552V473.758L641.343 485.452V314.039L660.639 303.552Z" fill="#D8D8D8"/>
<path d="M622.099 303.552V473.758L641.343 485.452V314.039L622.099 303.552Z" fill="#E8E8E8"/>
<path d="M660.639 303.551L641.343 291.963L622.099 303.551L641.343 314.039L660.639 303.551Z" fill="#A0A0A0"/>
<path d="M716.273 270.045V440.252L696.977 451.945V280.532L716.273 270.045Z" fill="#D8D8D8"/>
<path d="M677.732 270.045V440.252L696.976 451.945V280.532L677.732 270.045Z" fill="#E8E8E8"/>
<path d="M716.273 270.045L696.976 258.509L677.732 270.045L696.976 280.532L716.273 270.045Z" fill="#A0A0A0"/>
<path d="M407.95 270.517V258.509L451.524 258.457L553.04 200.305C565.101 193.384 584.816 193.384 596.877 200.253L698.865 258.457H740.918V268.682C741.338 273.558 738.401 278.487 732.004 282.21L596.772 360.917C590.689 364.482 582.562 366.213 574.487 366.16H574.434C566.674 366.108 558.966 364.43 553.04 361.021L416.969 283.102C410.991 279.641 407.95 275.079 407.95 270.517Z" fill="#D8D8D8"/>
<path d="M553.041 167.795C565.101 160.874 584.817 160.821 596.877 167.743L731.9 244.771C743.96 251.64 744.012 263.019 732.005 269.993L596.772 348.647C584.765 355.673 565.101 355.725 553.041 348.804L416.97 270.832C404.962 263.963 404.962 252.636 416.97 245.715L553.041 167.795Z" fill="#F7F7F7"/>
<path d="M486.238 219.392L570.345 341.148L717.376 256.412L633.373 133.449L486.238 219.392Z" fill="#0B6ECA"/>
<path d="M486.238 219.392L422.161 256.045L570.345 341.148L486.238 219.392Z" fill="#13426D"/>
<path d="M472.552 244.561L472.184 243.879L475.331 242.359C475.401 242.324 475.453 242.289 475.488 242.254H475.54C478.582 240.786 482.672 241.153 487.076 243.67C496.62 249.123 504.433 262.704 504.433 273.873C504.433 279.955 502.073 284.045 498.455 285.618V285.671L494.942 287.349L494.417 286.352C492.215 286.3 489.698 285.513 487.076 283.993C477.585 278.435 469.772 264.854 469.772 253.842C469.772 249.857 470.821 246.658 472.552 244.561Z" fill="#AFA605"/>
<path d="M500.71 275.656C500.71 264.487 492.897 250.906 483.354 245.505C473.863 240.052 466.05 244.614 466.05 255.625C466.05 266.637 473.863 280.218 483.354 285.776C492.897 291.386 500.71 286.824 500.71 275.656Z" fill="#D8D209"/>
<path d="M499.399 274.921C499.399 264.592 492.215 252.007 483.353 246.973C474.544 241.939 467.36 246.187 467.36 256.359C467.36 266.584 474.544 279.116 483.353 284.307C492.215 289.446 499.399 285.251 499.399 274.921Z" fill="#AFA709"/>
<path d="M498.141 274.187C498.141 264.696 491.481 253.108 483.354 248.494C475.278 243.827 468.619 247.76 468.619 257.093C468.619 266.479 475.278 278.067 483.354 282.787C491.481 287.558 498.141 283.678 498.141 274.187Z" fill="#E8D810"/>
<path d="M581.985 493.002L584.397 491.692V440.671L581.985 441.982V493.002Z" fill="#2E8DB7"/>
<path d="M581.985 441.982L584.398 440.671L506.53 394.947L504.118 396.258L581.985 441.982Z" fill="#4FC1E0"/>
<path d="M504.118 396.258L581.985 441.982V493.002L570.974 486.605V506.111L559.648 479.998L504.118 447.698V396.258Z" fill="#379CD3"/>
<path d="M573.595 488.126V504.486L570.974 506.111V486.605L573.595 488.126Z" fill="#2E8DB7"/>
<path d="M510.567 416.289V435.69L575.483 473.234L575.535 454.147L510.567 416.289Z" fill="#B3BAE8"/>
<path d="M514.972 424.311V426.618L570.816 459.181L570.868 456.926L514.972 424.311Z" fill="white"/>
<path d="M514.972 429.345V432.649L570.816 465.211L570.868 462.013L514.972 429.345Z" fill="white"/>
<path d="M985.951 597.245L777.833 718.529L621.941 627.291L830.636 508.104L985.951 597.245Z" fill="#3A5D77"/>
<path d="M985.951 607.313L777.833 728.597L621.941 637.358L830.636 518.119L985.951 607.313Z" fill="#A0BEEA"/>
<path d="M985.951 585.394L777.833 706.679L621.941 615.44L830.636 496.253L985.951 585.394Z" fill="#0B6ECA"/>
<path d="M621.941 615.44L830.636 496.253Z" fill="#481AAF"/>
<path d="M777.833 718.529V706.679L621.941 615.44V627.291L777.833 718.529Z" fill="#13426D"/>
<path d="M985.952 597.245V585.395L777.834 706.679V718.529L985.952 597.245Z" fill="#0B6ECA"/>
<path d="M971.585 583.402L835.146 505.115L640.399 617.747L776.366 697.188L971.585 583.402Z" fill="#EFEFEF"/>
<path d="M936.924 553.199V544.285L910.549 559.858V568.091L936.924 553.199Z" fill="#D6680D"/>
<path d="M936.925 544.285L884.384 514.082L856.75 529.97L910.549 559.858L936.925 544.285Z" fill="#FF933B"/>
<path d="M856.75 529.97V537.94L910.549 568.091V559.858L856.75 529.97Z" fill="#F97C0B"/>
<path d="M936.924 553.199V557.289L933.358 555.244L936.924 553.199Z" fill="#D6680D"/>
<path d="M811.498 540.405L915.059 599.552L908.872 603.065L806.202 544.232L811.498 540.405Z" fill="#C9C9C9"/>
<path d="M796.344 549.371L899.642 608.361L893.455 611.875L790.995 553.147L796.344 549.371Z" fill="#C9C9C9"/>
<path d="M778.725 558.495L882.758 617.905L876.571 621.418L773.377 562.27L778.725 558.495Z" fill="#C9C9C9"/>
<path d="M763.571 567.409L867.342 626.714L861.154 630.227L758.223 571.237L763.571 567.409Z" fill="#C9C9C9"/>
<path d="M747.106 577.424L850.3 636.362L844.113 639.876L741.758 581.2L747.106 577.424Z" fill="#C9C9C9"/>
<path d="M731.953 586.338L834.832 645.119L828.645 648.632L726.604 590.166L731.953 586.338Z" fill="#C9C9C9"/>
<path d="M714.282 595.462L818 654.715L811.813 658.228L708.934 599.29L714.282 595.462Z" fill="#C9C9C9"/>
<path d="M699.128 604.429L802.531 663.472L796.344 666.985L693.779 608.204L699.128 604.429Z" fill="#C9C9C9"/>
<path d="M907.98 486.71C906.774 485.085 904.991 483.564 902.736 482.253C893.035 476.695 877.305 476.852 867.761 482.568C865.559 483.879 863.881 485.399 862.675 486.972H860.63V492.216C860.368 496.096 862.727 500.029 867.761 502.913C877.305 508.366 893.035 508.209 902.736 502.598C907.35 499.924 909.762 496.463 909.972 492.95H910.025V486.658L907.98 486.71Z" fill="#CCBB1F"/>
<path d="M902.736 477.062C893.035 471.504 877.304 471.661 867.761 477.377C858.218 483.092 858.218 492.216 867.761 497.669C877.304 503.123 893.035 503.018 902.736 497.407C912.436 491.796 912.436 482.62 902.736 477.062Z" fill="#DDCF22"/>
<path d="M899.59 478.95C891.62 474.388 878.773 474.493 870.908 479.159C863.095 483.826 863.095 491.325 870.908 495.834C878.773 500.291 891.62 500.186 899.59 495.572C907.56 490.957 907.56 483.459 899.59 478.95Z" fill="#C1B121"/>
<path fill-rule="evenodd" clip-rule="evenodd" d="M884.435 490.381V487.707C882.757 487.462 881.534 487.095 880.765 486.605C879.996 486.116 879.611 485.522 879.611 484.823C879.611 484.123 880.048 483.529 880.922 483.04C881.796 482.55 882.967 482.271 884.435 482.201V481.572H886.271V482.201C887.599 482.271 888.665 482.498 889.469 482.882C890.273 483.267 890.78 483.791 890.99 484.456L887.791 484.665C887.582 484.141 887.075 483.791 886.271 483.617V486.133C888.298 486.413 889.679 486.78 890.413 487.235C891.147 487.689 891.514 488.266 891.514 488.965C891.514 489.734 891.06 490.381 890.151 490.905C889.207 491.464 887.914 491.797 886.271 491.901V493.107H884.435V491.954C882.967 491.849 881.779 491.569 880.87 491.115C879.926 490.66 879.332 489.996 879.087 489.122L882.39 488.965C882.53 489.315 882.792 489.612 883.177 489.856C883.561 490.101 883.981 490.276 884.435 490.381ZM884.435 483.617C883.911 483.686 883.509 483.826 883.229 484.036C882.915 484.246 882.757 484.473 882.757 484.718C882.757 484.962 882.897 485.172 883.177 485.347C883.457 485.557 883.876 485.731 884.435 485.871V483.617ZM886.271 490.433C886.9 490.398 887.407 490.258 887.791 490.014C888.211 489.769 888.421 489.489 888.421 489.175C888.421 488.895 888.246 488.65 887.896 488.441C887.582 488.231 887.04 488.056 886.271 487.916V490.433Z" fill="#EFDB22"/>
<path d="M907.98 478.32C906.774 476.695 904.991 475.227 902.736 473.916C893.035 468.358 877.305 468.462 867.761 474.178C865.559 475.489 863.881 477.01 862.675 478.635H860.63V483.826C860.368 487.706 862.727 491.639 867.761 494.523C877.305 499.976 893.035 499.819 902.736 494.208C907.35 491.534 909.762 488.073 909.972 484.613H910.025V478.32H907.98Z" fill="#CCBB1F"/>
<path d="M902.736 468.725C893.035 463.114 877.304 463.271 867.761 468.987C858.218 474.702 858.218 483.879 867.761 489.332C877.304 494.785 893.035 494.628 902.736 489.017C912.436 483.407 912.436 474.283 902.736 468.725Z" fill="#DDCF22"/>
<path d="M899.59 470.56C891.62 465.998 878.773 466.103 870.908 470.77C863.095 475.489 863.095 482.987 870.908 487.444C878.773 491.901 891.62 491.796 899.59 487.234C907.56 482.62 907.56 475.122 899.59 470.56Z" fill="#C1B121"/>
<path fill-rule="evenodd" clip-rule="evenodd" d="M884.435 481.991V479.317C882.757 479.072 881.534 478.705 880.765 478.215C879.996 477.726 879.611 477.132 879.611 476.433C879.611 475.733 880.048 475.139 880.922 474.65C881.796 474.195 882.967 473.916 884.435 473.811V473.182H886.271V473.811C887.599 473.916 888.665 474.16 889.469 474.545C890.273 474.929 890.78 475.436 890.99 476.066L887.791 476.275C887.582 475.786 887.075 475.454 886.271 475.279V477.796C888.298 478.076 889.679 478.443 890.413 478.897C891.147 479.317 891.514 479.876 891.514 480.575C891.514 481.344 891.06 482.008 890.151 482.568C889.207 483.092 887.914 483.407 886.271 483.511V484.718H884.435V483.564C882.967 483.459 881.779 483.179 880.87 482.725C879.926 482.271 879.332 481.624 879.087 480.785L882.39 480.575C882.53 480.925 882.792 481.222 883.177 481.467C883.561 481.711 883.981 481.886 884.435 481.991ZM884.435 475.227C883.911 475.331 883.509 475.489 883.229 475.699C882.915 475.908 882.757 476.136 882.757 476.38C882.757 476.59 882.897 476.8 883.177 477.009C883.457 477.184 883.876 477.342 884.435 477.481V475.227ZM886.271 482.096C886.9 482.026 887.407 481.869 887.791 481.624C888.211 481.379 888.421 481.099 888.421 480.785C888.421 480.505 888.246 480.26 887.896 480.051C887.582 479.841 887.04 479.684 886.271 479.579V482.096Z" fill="#EFDB22"/>
<path d="M907.98 469.616C906.774 467.99 904.991 466.522 902.736 465.211C893.035 459.653 877.305 459.758 867.761 465.473C865.559 466.784 863.881 468.305 862.675 469.878L860.63 469.93V475.122C860.368 479.002 862.727 482.935 867.761 485.818C877.305 491.272 893.035 491.115 902.736 485.504C907.35 482.83 909.762 479.369 909.972 475.908H910.025V469.616H907.98Z" fill="#CCBB1F"/>
<path d="M902.736 459.968C893.035 454.409 877.304 454.567 867.761 460.282C858.218 465.998 858.218 475.174 867.761 480.627C877.304 486.081 893.035 485.923 902.736 480.313C912.436 474.702 912.436 465.578 902.736 459.968Z" fill="#DDCF22"/>
<path d="M899.59 461.855C891.62 457.294 878.773 457.398 870.908 462.065C863.095 466.784 863.095 474.283 870.908 478.74C878.773 483.197 891.62 483.092 899.59 478.53C907.56 473.916 907.56 466.417 899.59 461.855Z" fill="#C1B121"/>
<path fill-rule="evenodd" clip-rule="evenodd" d="M884.435 473.286V470.612C882.757 470.367 881.534 470 880.765 469.511C879.996 469.022 879.611 468.427 879.611 467.728C879.611 467.029 880.048 466.435 880.922 465.945C881.796 465.491 882.967 465.211 884.435 465.106V464.477H886.271V465.106C887.599 465.211 888.665 465.456 889.469 465.84C890.273 466.225 890.78 466.732 890.99 467.361L887.791 467.571C887.582 467.081 887.075 466.749 886.271 466.574V469.091C888.298 469.371 889.679 469.721 890.413 470.14C891.147 470.595 891.514 471.171 891.514 471.871C891.514 472.64 891.06 473.304 890.151 473.863C889.207 474.387 887.914 474.702 886.271 474.807V476.013H884.435V474.859C882.967 474.754 881.779 474.475 880.87 474.02C879.926 473.566 879.332 472.919 879.087 472.08L882.39 471.871C882.53 472.22 882.792 472.517 883.177 472.762C883.561 473.007 883.981 473.181 884.435 473.286ZM884.435 466.522C883.911 466.627 883.509 466.784 883.229 466.994C882.915 467.204 882.757 467.431 882.757 467.676C882.757 467.885 882.897 468.095 883.177 468.305C883.457 468.48 883.876 468.637 884.435 468.777V466.522ZM886.271 473.391C886.9 473.321 887.407 473.164 887.791 472.919C888.211 472.675 888.421 472.395 888.421 472.08C888.421 471.801 888.246 471.556 887.896 471.346C887.582 471.136 887.04 470.979 886.271 470.874V473.391Z" fill="#EFDB22"/>
<path d="M907.98 461.226C906.774 459.653 904.991 458.133 902.736 456.822C893.035 451.263 877.305 451.368 867.761 457.136C865.559 458.447 863.881 459.915 862.675 461.541H860.63V466.732C860.368 470.665 862.727 474.545 867.761 477.429C877.305 482.882 893.035 482.777 902.736 477.167C907.35 474.493 909.762 471.032 909.972 467.519H910.025V461.226H907.98Z" fill="#CCBB1F"/>
<path d="M902.736 451.63C893.035 446.072 877.304 446.177 867.761 451.893C858.218 457.608 858.218 466.784 867.761 472.238C877.304 477.691 893.035 477.586 902.736 471.923C912.436 466.312 912.436 457.189 902.736 451.63Z" fill="#DDCF22"/>
<path d="M899.59 453.466C891.62 448.904 878.773 449.009 870.908 453.728C863.095 458.395 863.095 465.893 870.908 470.35C878.773 474.86 891.62 474.755 899.59 470.14C907.56 465.526 907.56 458.028 899.59 453.466Z" fill="#C1B121"/>
<path d="M957.322 512.823C956.116 511.198 954.385 509.677 952.131 508.418C942.43 502.808 926.699 502.965 917.156 508.681C914.954 509.992 913.276 511.512 912.07 513.085L910.025 513.138V518.329C909.762 522.209 912.122 526.142 917.156 529.026C926.699 534.479 942.43 534.322 952.131 528.711C956.745 526.037 959.157 522.576 959.367 519.115H959.419V512.771L957.322 512.823Z" fill="#CCBB1F"/>
<path d="M952.13 503.175C942.43 497.617 926.699 497.774 917.156 503.49C907.612 509.205 907.612 518.329 917.156 523.782C926.699 529.288 942.43 529.131 952.13 523.52C961.831 517.909 961.831 508.733 952.13 503.175Z" fill="#DDCF22"/>
<path d="M948.985 505.063C941.014 500.501 928.115 500.606 920.302 505.272C912.489 509.992 912.489 517.49 920.302 521.947C928.115 526.404 941.014 526.299 948.985 521.685C956.902 517.123 956.902 509.625 948.985 505.063Z" fill="#C1B121"/>
<path fill-rule="evenodd" clip-rule="evenodd" d="M933.83 516.494V513.82C932.152 513.575 930.928 513.208 930.159 512.718C929.39 512.229 929.006 511.635 929.006 510.936C929.006 510.236 929.443 509.642 930.317 509.153C931.191 508.663 932.362 508.384 933.83 508.314V507.685H935.665V508.314C936.994 508.419 938.06 508.663 938.864 509.048C939.668 509.432 940.175 509.939 940.384 510.569L937.186 510.778C936.976 510.289 936.469 509.939 935.665 509.73V512.299C937.693 512.579 939.074 512.928 939.808 513.348C940.542 513.802 940.909 514.379 940.909 515.078C940.909 515.847 940.454 516.511 939.545 517.071C938.602 517.595 937.308 517.91 935.665 518.014V519.22H933.83V518.067C932.362 517.962 931.156 517.682 930.212 517.228C929.303 516.773 928.726 516.109 928.481 515.235L931.785 515.078C931.925 515.428 932.187 515.725 932.571 515.969C932.956 516.214 933.376 516.389 933.83 516.494ZM933.83 509.73C933.306 509.834 932.904 509.974 932.624 510.149C932.309 510.359 932.152 510.603 932.152 510.883C932.152 511.093 932.292 511.303 932.571 511.512C932.851 511.687 933.271 511.844 933.83 511.984V509.73ZM935.665 516.599C936.294 516.529 936.801 516.371 937.186 516.127C937.605 515.882 937.815 515.602 937.815 515.288C937.815 515.008 937.64 514.763 937.291 514.554C936.976 514.344 936.434 514.187 935.665 514.082V516.599Z" fill="#EFDB22"/>
<path d="M962.932 481.362C961.726 479.788 959.996 478.268 957.689 476.957C948.041 471.399 932.257 471.504 922.767 477.272C920.564 478.582 918.834 480.051 917.68 481.676H915.635V486.867C915.321 490.8 917.68 494.68 922.767 497.564C932.257 503.018 948.041 502.913 957.689 497.302C962.303 494.628 964.715 491.167 964.977 487.654V481.362H962.932Z" fill="#CCBB1F"/>
<path d="M957.689 471.766C948.041 466.208 932.258 466.313 922.767 472.028C913.224 477.796 913.224 486.92 922.767 492.373C932.258 497.827 948.041 497.722 957.689 492.059C967.39 486.448 967.39 477.324 957.689 471.766Z" fill="#DDCF22"/>
<path d="M954.542 473.601C946.625 469.039 933.725 469.144 925.912 473.863C918.099 478.53 918.099 486.029 925.912 490.486C933.725 494.995 946.625 494.89 954.542 490.276C962.513 485.661 962.513 478.163 954.542 473.601Z" fill="#C1B121"/>
<path fill-rule="evenodd" clip-rule="evenodd" d="M939.388 485.085V482.358C937.745 482.113 936.522 481.746 935.718 481.257C934.949 480.767 934.564 480.191 934.564 479.526C934.564 478.792 935.001 478.198 935.875 477.744C936.749 477.254 937.92 476.975 939.388 476.905V476.275H941.224V476.905C942.587 476.975 943.671 477.202 944.475 477.586C945.279 477.971 945.786 478.495 945.995 479.159L942.744 479.369C942.57 478.845 942.063 478.495 941.224 478.32V480.837C943.286 481.117 944.685 481.484 945.419 481.938C946.153 482.393 946.52 482.97 946.52 483.669C946.52 484.438 946.048 485.085 945.104 485.609C944.195 486.133 942.902 486.465 941.224 486.605V487.811H939.388V486.605C937.92 486.535 936.732 486.256 935.823 485.766C934.914 485.312 934.32 484.665 934.04 483.826L937.396 483.669C937.536 483.983 937.78 484.263 938.13 484.508C938.515 484.787 938.934 484.98 939.388 485.085ZM939.388 478.32C938.899 478.39 938.497 478.53 938.182 478.74C937.903 478.95 937.763 479.177 937.763 479.422C937.763 479.666 937.903 479.876 938.182 480.051C938.427 480.261 938.829 480.418 939.388 480.523V478.32ZM941.224 485.189C941.888 485.12 942.412 484.98 942.797 484.77C943.181 484.525 943.374 484.246 943.374 483.931C943.374 483.616 943.216 483.354 942.902 483.145C942.552 482.935 941.993 482.777 941.224 482.673V485.189Z" fill="#EFDB22"/>
<path d="M962.932 473.024C961.726 471.399 959.996 469.878 957.689 468.567C948.041 463.009 932.257 463.166 922.767 468.882C920.564 470.193 918.834 471.713 917.68 473.287H915.635V478.53C915.321 482.41 917.68 486.343 922.767 489.227C932.257 494.68 948.041 494.523 957.689 488.912C962.303 486.238 964.715 482.777 964.977 479.264V472.972L962.932 473.024Z" fill="#CCBB1F"/>
<path d="M957.689 463.376C948.041 457.818 932.258 457.975 922.767 463.691C913.224 469.406 913.224 478.53 922.767 483.983C932.258 489.437 948.041 489.332 957.689 483.721C967.39 478.111 967.39 468.934 957.689 463.376Z" fill="#DDCF22"/>
<path d="M954.542 465.264C946.625 460.702 933.725 460.807 925.912 465.474C918.099 470.193 918.099 477.639 925.912 482.148C933.725 486.605 946.625 486.5 954.542 481.886C962.513 477.272 962.513 469.773 954.542 465.264Z" fill="#C1B121"/>
<path fill-rule="evenodd" clip-rule="evenodd" d="M939.388 476.695V474.021C937.745 473.776 936.522 473.409 935.718 472.92C934.949 472.43 934.564 471.836 934.564 471.137C934.564 470.438 935.001 469.843 935.875 469.354C936.749 468.865 937.92 468.585 939.388 468.515V467.886H941.224V468.515C942.587 468.585 943.671 468.83 944.475 469.249C945.279 469.634 945.786 470.14 945.995 470.77L942.744 470.979C942.57 470.49 942.063 470.14 941.224 469.931V472.448C943.286 472.727 944.685 473.094 945.419 473.549C946.153 474.003 946.52 474.58 946.52 475.279C946.52 476.048 946.048 476.695 945.104 477.219C944.195 477.779 942.902 478.111 941.224 478.216V479.422H939.388V478.268C937.92 478.163 936.732 477.884 935.823 477.429C934.914 476.975 934.32 476.31 934.04 475.437L937.396 475.279C937.536 475.629 937.78 475.926 938.13 476.171C938.515 476.415 938.934 476.59 939.388 476.695ZM939.388 469.931C938.899 470.001 938.497 470.14 938.182 470.35C937.903 470.56 937.763 470.787 937.763 471.032C937.763 471.277 937.903 471.504 938.182 471.714C938.427 471.888 938.829 472.046 939.388 472.185V469.931ZM941.224 476.747C941.888 476.712 942.412 476.573 942.797 476.328C943.181 476.083 943.374 475.804 943.374 475.489C943.374 475.209 943.216 474.965 942.902 474.755C942.552 474.545 941.993 474.37 941.224 474.231V476.747Z" fill="#EFDB22"/>
<path d="M962.932 464.373C961.726 462.799 959.996 461.279 957.689 459.968C948.041 454.41 932.257 454.567 922.767 460.283C920.564 461.593 918.834 463.114 917.68 464.687H915.635V469.931C915.321 473.811 917.68 477.691 922.767 480.575C932.257 486.081 948.041 485.924 957.689 480.313C962.303 477.639 964.715 474.178 964.977 470.665V464.373H962.932Z" fill="#CCBB1F"/>
<path d="M957.689 454.777C948.041 449.219 932.258 449.376 922.767 455.091C913.224 460.807 913.224 469.931 922.767 475.384C932.258 480.837 948.041 480.733 957.689 475.122C967.39 469.511 967.39 460.335 957.689 454.777Z" fill="#DDCF22"/>
<path d="M954.542 456.612C946.625 452.05 933.725 452.207 925.912 456.874C918.099 461.541 918.099 469.039 925.912 473.549C933.725 478.006 946.625 477.901 954.542 473.287C962.513 468.672 962.513 461.174 954.542 456.612Z" fill="#C1B121"/>
<path d="M957.322 504.433C956.116 502.808 954.385 501.34 952.131 500.029C942.43 494.471 926.699 494.575 917.156 500.291C914.954 501.654 913.276 503.123 912.07 504.748H910.025V509.939C909.762 513.819 912.122 517.752 917.156 520.636C926.699 526.089 942.43 525.985 952.131 520.374C956.745 517.7 959.157 514.239 959.367 510.726H959.419V504.433H957.322Z" fill="#CCBB1F"/>
<path d="M952.13 494.838C942.43 489.279 926.699 489.384 917.156 495.1C907.612 500.815 907.612 509.992 917.156 515.445C926.699 520.898 942.43 520.741 952.13 515.13C961.831 509.52 961.831 500.396 952.13 494.838Z" fill="#DDCF22"/>
<path d="M948.985 496.673C941.014 492.111 928.115 492.216 920.302 496.935C912.489 501.602 912.489 509.1 920.302 513.557C928.115 518.067 941.014 517.962 948.985 513.348C956.902 508.733 956.902 501.235 948.985 496.673Z" fill="#C1B121"/>
<path d="M1014.37 512.876C1013.17 511.303 1011.38 509.782 1009.13 508.471C999.428 502.913 983.697 503.07 974.154 508.786C971.952 510.097 970.274 511.617 969.068 513.19H967.023V518.434C966.76 522.314 969.12 526.194 974.154 529.078C983.697 534.584 999.428 534.427 1009.13 528.816C1013.74 526.142 1016.16 522.681 1016.36 519.168H1016.42V512.876H1014.37Z" fill="#CCBB1F"/>
<path d="M1009.13 503.28C999.428 497.722 983.697 497.879 974.154 503.595C964.61 509.31 964.61 518.434 974.154 523.887C983.697 529.341 999.428 529.236 1009.13 523.625C1018.83 518.014 1018.83 508.838 1009.13 503.28Z" fill="#DDCF22"/>
<path d="M1005.98 505.115C998.064 500.553 985.165 500.711 977.352 505.377C969.487 510.044 969.487 517.542 977.352 522.052C985.165 526.509 998.064 526.404 1005.98 521.79C1013.95 517.175 1013.95 509.677 1005.98 505.115Z" fill="#C1B121"/>
<path fill-rule="evenodd" clip-rule="evenodd" d="M990.828 516.599V513.924C989.15 513.68 987.926 513.313 987.157 512.823C986.388 512.334 986.004 511.739 986.004 511.04C986.004 510.341 986.441 509.747 987.315 509.258C988.189 508.768 989.36 508.488 990.828 508.419V507.789H992.663V508.419C994.027 508.488 995.093 508.716 995.862 509.1C996.666 509.485 997.173 510.009 997.382 510.673L994.184 510.883C993.974 510.359 993.467 510.009 992.663 509.834V512.351C994.691 512.631 996.072 512.998 996.806 513.452C997.54 513.907 997.907 514.484 997.907 515.183C997.907 515.952 997.452 516.599 996.543 517.123C995.6 517.682 994.306 518.014 992.663 518.119V519.325H990.828V518.172C989.36 518.067 988.171 517.787 987.262 517.333C986.318 516.843 985.724 516.179 985.479 515.34L988.783 515.183C988.923 515.532 989.185 515.829 989.569 516.074C989.954 516.319 990.373 516.494 990.828 516.599ZM990.828 509.834C990.304 509.904 989.902 510.044 989.622 510.254C989.307 510.464 989.15 510.691 989.15 510.935C989.15 511.18 989.29 511.39 989.569 511.565C989.849 511.774 990.269 511.932 990.828 512.037V509.834ZM992.663 516.703C993.292 516.668 993.817 516.529 994.236 516.284C994.621 516.039 994.813 515.76 994.813 515.445C994.813 515.13 994.638 514.886 994.289 514.711C993.974 514.501 993.432 514.326 992.663 514.186V516.703Z" fill="#EFDB22"/>
<path d="M1014.37 504.538C1013.17 502.913 1011.38 501.444 1009.13 500.134C999.428 494.575 983.697 494.68 974.154 500.396C971.952 501.707 970.274 503.227 969.068 504.8L967.023 504.853V510.044C966.76 513.924 969.12 517.857 974.154 520.741C983.697 526.194 999.428 526.037 1009.13 520.426C1013.74 517.752 1016.16 514.291 1016.36 510.83H1016.42V504.538H1014.37Z" fill="#CCBB1F"/>
<path d="M1009.13 494.89C999.428 489.332 983.697 489.489 974.154 495.205C964.61 500.92 964.61 510.096 974.154 515.55C983.697 521.003 999.428 520.846 1009.13 515.235C1018.83 509.625 1018.83 500.501 1009.13 494.89Z" fill="#DDCF22"/>
<path d="M1005.98 496.778C998.064 492.216 985.165 492.321 977.352 496.988C969.487 501.707 969.487 509.205 977.352 513.662C985.165 518.119 998.064 518.014 1005.98 513.4C1013.95 508.838 1013.95 501.34 1005.98 496.778Z" fill="#C1B121"/>
<path d="M1004.2 553.671C1002.99 552.098 1001.26 550.577 999.008 549.266C989.308 543.708 973.577 543.865 964.034 549.581C961.831 550.892 960.154 552.412 958.947 553.985H956.902V559.176C956.64 563.109 959 566.989 964.034 569.873C973.577 575.327 989.308 575.222 999.008 569.611C1003.62 566.937 1006.03 563.476 1006.24 559.963H1006.3V553.671H1004.2Z" fill="#CCBB1F"/>
<path d="M999.008 544.075C989.308 538.517 973.577 538.622 964.033 544.389C954.49 550.105 954.49 559.229 964.033 564.682C973.577 570.136 989.308 570.031 999.008 564.42C1008.71 558.809 1008.71 549.633 999.008 544.075Z" fill="#DDCF22"/>
<path d="M995.862 545.91C987.892 541.348 974.993 541.453 967.18 546.172C959.367 550.839 959.367 558.337 967.18 562.847C974.993 567.304 987.892 567.199 995.862 562.585C1003.83 557.97 1003.83 550.472 995.862 545.91Z" fill="#C1B121"/>
<path fill-rule="evenodd" clip-rule="evenodd" d="M980.708 557.393V554.667C979.03 554.457 977.806 554.108 977.037 553.618C976.268 553.129 975.884 552.534 975.884 551.835C975.884 551.101 976.321 550.507 977.195 550.052C978.069 549.563 979.24 549.283 980.708 549.213V548.584H982.543V549.213C983.872 549.283 984.938 549.511 985.742 549.895C986.546 550.28 987.053 550.804 987.262 551.468L984.064 551.678C983.854 551.154 983.347 550.804 982.543 550.629V553.146C984.571 553.426 985.951 553.793 986.686 554.247C987.42 554.702 987.787 555.279 987.787 555.978C987.787 556.747 987.332 557.393 986.423 557.918C985.479 558.442 984.186 558.774 982.543 558.914V560.12H980.708V558.967C979.24 558.862 978.034 558.582 977.09 558.128C976.181 557.638 975.604 556.974 975.359 556.135L978.663 555.978C978.803 556.327 979.065 556.624 979.449 556.869C979.834 557.114 980.253 557.289 980.708 557.393ZM980.708 550.629C980.184 550.699 979.781 550.839 979.502 551.049C979.187 551.258 979.03 551.486 979.03 551.73C979.03 551.975 979.17 552.185 979.449 552.36C979.729 552.569 980.149 552.727 980.708 552.832V550.629ZM982.543 557.498C983.172 557.463 983.679 557.324 984.064 557.079C984.483 556.834 984.693 556.555 984.693 556.24C984.693 555.925 984.518 555.663 984.169 555.453C983.854 555.244 983.312 555.086 982.543 554.981V557.498Z" fill="#EFDB22"/>
<path d="M1004.2 545.333C1002.99 543.708 1001.26 542.187 999.008 540.929C989.308 535.318 973.577 535.475 964.034 541.191C961.831 542.502 960.154 544.022 958.947 545.596L956.902 545.648V550.839C956.64 554.719 959 558.652 964.034 561.536C973.577 566.989 989.308 566.832 999.008 561.221C1003.62 558.547 1006.03 555.086 1006.24 551.626H1006.3V545.281L1004.2 545.333Z" fill="#CCBB1F"/>
<path d="M999.008 535.685C989.308 530.127 973.577 530.284 964.033 536C954.49 541.715 954.49 550.839 964.033 556.345C973.577 561.798 989.308 561.641 999.008 556.03C1008.71 550.42 1008.71 541.243 999.008 535.685Z" fill="#DDCF22"/>
<path d="M995.862 537.573C987.892 533.011 974.993 533.116 967.18 537.783C959.367 542.502 959.367 550 967.18 554.457C974.993 558.914 987.892 558.81 995.862 554.195C1003.83 549.633 1003.83 542.135 995.862 537.573Z" fill="#C1B121"/>
<path fill-rule="evenodd" clip-rule="evenodd" d="M980.708 549.004V546.33C979.03 546.085 977.806 545.718 977.037 545.228C976.268 544.739 975.884 544.145 975.884 543.446C975.884 542.746 976.321 542.152 977.195 541.663C978.069 541.173 979.24 540.894 980.708 540.824V540.195H982.543V540.824C983.872 540.929 984.938 541.173 985.742 541.558C986.546 541.942 987.053 542.449 987.262 543.079L984.064 543.288C983.854 542.799 983.347 542.449 982.543 542.24V544.809C984.571 545.089 985.951 545.438 986.686 545.858C987.42 546.312 987.787 546.889 987.787 547.588C987.787 548.357 987.332 549.021 986.423 549.581C985.479 550.105 984.186 550.42 982.543 550.524V551.73H980.708V550.577C979.24 550.472 978.034 550.192 977.09 549.738C976.181 549.284 975.604 548.619 975.359 547.745L978.663 547.588C978.803 547.938 979.065 548.235 979.449 548.479C979.834 548.724 980.253 548.899 980.708 549.004ZM980.708 542.24C980.184 542.344 979.781 542.484 979.502 542.659C979.187 542.869 979.03 543.114 979.03 543.393C979.03 543.603 979.17 543.813 979.449 544.022C979.729 544.197 980.149 544.355 980.708 544.494V542.24ZM982.543 549.109C983.172 549.039 983.679 548.882 984.064 548.637C984.483 548.392 984.693 548.112 984.693 547.798C984.693 547.518 984.518 547.273 984.169 547.064C983.854 546.854 983.312 546.697 982.543 546.592V549.109Z" fill="#EFDB22"/>
<path d="M1004.2 536.944C1002.99 535.371 1001.26 533.85 999.008 532.539C989.308 526.981 973.577 527.138 964.034 532.854C961.831 534.165 960.154 535.685 958.947 537.258H956.902V542.502C956.64 546.382 959 550.262 964.034 553.146C973.577 558.652 989.308 558.495 999.008 552.884C1003.62 550.21 1006.03 546.749 1006.24 543.236H1006.3V536.944H1004.2Z" fill="#CCBB1F"/>
<path d="M999.008 527.348C989.308 521.79 973.577 521.947 964.033 527.662C954.49 533.378 954.49 542.502 964.033 547.955C973.577 553.408 989.308 553.304 999.008 547.693C1008.71 542.082 1008.71 532.906 999.008 527.348Z" fill="#DDCF22"/>
<path d="M995.862 529.183C987.892 524.673 974.993 524.778 967.18 529.445C959.367 534.112 959.367 541.61 967.18 546.12C974.993 550.577 987.892 550.472 995.862 545.858C1003.83 541.243 1003.83 533.745 995.862 529.183Z" fill="#C1B121"/>
<path fill-rule="evenodd" clip-rule="evenodd" d="M980.708 540.667V537.992C979.03 537.748 977.806 537.381 977.037 536.891C976.268 536.402 975.884 535.808 975.884 535.108C975.884 534.409 976.321 533.815 977.195 533.326C978.069 532.836 979.24 532.557 980.708 532.487V531.857H982.543V532.487C983.872 532.557 984.938 532.784 985.742 533.168C986.546 533.553 987.053 534.077 987.262 534.741L984.064 534.951C983.854 534.427 983.347 534.077 982.543 533.902V536.419C984.571 536.699 985.951 537.066 986.686 537.52C987.42 537.975 987.787 538.552 987.787 539.251C987.787 540.02 987.332 540.667 986.423 541.191C985.479 541.75 984.186 542.082 982.543 542.187V543.393H980.708V542.24C979.24 542.135 978.034 541.855 977.09 541.401C976.181 540.911 975.604 540.247 975.359 539.408L978.663 539.251C978.803 539.6 979.065 539.898 979.449 540.142C979.834 540.387 980.253 540.562 980.708 540.667ZM980.708 533.902C980.184 533.972 979.781 534.112 979.502 534.322C979.187 534.532 979.03 534.759 979.03 535.004C979.03 535.248 979.17 535.458 979.449 535.633C979.729 535.843 980.149 536 980.708 536.105V533.902ZM982.543 540.772C983.172 540.737 983.679 540.597 984.064 540.352C984.483 540.107 984.693 539.828 984.693 539.513C984.693 539.233 984.518 538.989 984.169 538.779C983.854 538.569 983.312 538.394 982.543 538.255V540.772Z" fill="#EFDB22"/>
<path d="M1004.2 528.606C1002.99 526.981 1001.26 525.513 999.008 524.202C989.308 518.643 973.577 518.748 964.034 524.464C961.831 525.775 960.154 527.295 958.947 528.868L956.902 528.921V534.112C956.64 537.992 959 541.925 964.034 544.809C973.577 550.262 989.308 550.105 999.008 544.494C1003.62 541.82 1006.03 538.359 1006.24 534.899H1006.3V528.606H1004.2Z" fill="#CCBB1F"/>
<path d="M999.008 518.958C989.308 513.4 973.577 513.557 964.033 519.273C954.49 524.988 954.49 534.165 964.033 539.618C973.577 545.071 989.308 544.914 999.008 539.303C1008.71 533.693 1008.71 524.569 999.008 518.958Z" fill="#DDCF22"/>
<path d="M995.862 520.846C987.892 516.284 974.993 516.389 967.18 521.056C959.367 525.775 959.367 533.273 967.18 537.73C974.993 542.187 987.892 542.082 995.862 537.468C1003.83 532.906 1003.83 525.408 995.862 520.846Z" fill="#C1B121"/>
<path d="M998.641 634.946L866.031 711.922L854.495 705.578L987.682 628.916L998.641 634.946Z" fill="#4B3E90"/>
<path d="M866.031 711.922V724.717L998.642 648.056V634.947L866.031 711.922Z" fill="#3B357A"/>
<path d="M866.031 711.922L838.345 731.219L854.495 705.578L866.031 711.922Z" fill="#EFEFEF"/>
<path d="M838.345 731.219L866.031 724.717V711.922L838.345 731.219Z" fill="#BFBFBF"/>
<path d="M841.648 725.975L844.06 727.234L838.345 731.219L841.648 725.975Z" fill="#49453D"/>
<path d="M844.06 727.234V729.855L838.345 731.219L844.06 727.234Z" fill="#38352F"/>
<path d="M998.642 634.947L1002.31 632.849V645.906L998.642 648.056V634.947Z" fill="#282622"/>
<path d="M1002.31 632.849L991.562 626.609L987.682 628.916L998.641 634.946L1002.31 632.849Z" fill="#38352F"/>
<path d="M1002.31 632.849L1009.81 628.497V641.606L1002.31 645.906V632.849Z" fill="#CE5D09"/>
<path d="M1009.81 628.497L998.641 622.205L991.562 626.609L1002.31 632.849L1009.81 628.497Z" fill="#F97C0B"/>
<path d="M856.697 271.408C856.697 254.838 845.109 234.703 831.004 226.628C816.846 218.553 805.258 225.317 805.258 241.677C805.258 258.037 816.846 278.172 831.004 286.457C845.109 294.69 856.697 287.926 856.697 271.408Z" fill="#000D3A"/>
<path d="M823.191 255.992C823.191 255.992 820.202 258.142 819.363 262.704L842.959 274.135C842.959 274.135 841.544 266.322 839.289 264.592L823.191 255.992Z" fill="#EBFBFF"/>
<path d="M840.914 249.962C841.334 255.206 838.397 259.768 834.307 260.082C830.27 260.397 826.652 256.412 826.232 251.116C825.813 245.872 828.749 241.363 832.787 241.048C836.877 240.733 840.495 244.718 840.914 249.962Z" fill="#EBFBFF"/>
<path d="M340.361 267.109C340.361 252.794 350.324 235.437 362.542 228.463C374.759 221.489 384.722 227.362 384.722 241.467C384.722 255.573 374.759 272.929 362.542 280.06C350.324 287.192 340.361 281.371 340.361 267.109Z" fill="#F97C0B"/>
<path d="M369.254 253.79C369.254 253.79 371.875 255.625 372.557 259.558L352.212 269.468C352.212 269.468 353.418 262.704 355.358 261.183L369.254 253.79Z" fill="#EBFBFF"/>
<path d="M353.995 248.599C353.627 253.161 356.144 257.041 359.658 257.303C363.171 257.618 366.265 254.157 366.632 249.595C366.999 245.086 364.482 241.205 360.969 240.891C357.455 240.628 354.362 244.089 353.995 248.599Z" fill="#EBFBFF"/>
<path d="M856.697 342.774C856.697 326.256 845.109 306.068 831.004 297.993C816.846 289.918 805.258 296.735 805.258 313.042C805.258 329.402 816.846 349.538 831.004 357.823C845.109 366.108 856.697 359.343 856.697 342.774Z" fill="#000D3A"/>
<path d="M823.191 327.41C823.191 327.41 820.202 329.507 819.363 334.069L842.959 345.5C842.959 345.5 841.544 337.687 839.289 335.957L823.191 327.41Z" fill="#EBFBFF"/>
<path d="M840.914 321.38C841.334 326.623 838.397 331.133 834.307 331.447C830.27 331.762 826.652 327.777 826.232 322.533C825.813 317.29 828.749 312.78 832.787 312.413C836.877 312.099 840.495 316.084 840.914 321.38Z" fill="#EBFBFF"/>
<path d="M555.4 529.078C555.4 529.078 548.059 523.153 544.703 522.891C544.703 522.891 543.183 522.576 542.763 523.52C542.763 523.52 542.134 524.464 543.34 525.198C543.34 525.198 540.561 527.348 532.433 520.059C532.433 520.059 530.965 519.378 530.755 520.059C530.755 520.059 529.392 521.528 531.332 524.411C531.332 524.411 536.209 534.584 550.838 535.475L553.25 536.629L555.4 529.078Z" fill="#FDD19C"/>
<path d="M627.238 687.697C627.238 687.697 626.556 695.825 626.976 697.45C626.976 697.45 623.934 704.319 623.777 706.731C623.777 706.731 623.095 713.495 628.444 713.495C628.444 713.495 637.568 713.391 638.931 706.679C638.931 706.679 640.399 699.285 639.875 697.66C639.875 697.66 640.137 690.529 638.984 689.113L627.238 687.697Z" fill="#1A1944"/>
<path d="M600.338 679.412C600.338 679.412 599.709 681.562 599.29 681.877C599.29 681.877 586.285 690.319 584.607 694.042C584.607 694.042 580.937 698.551 586.81 698.761C586.81 698.761 598.503 699.705 604.69 693.413C604.69 693.413 606.159 692.102 606.368 692.102C606.368 692.102 610.458 693.098 611.612 690.791C611.612 690.791 612.87 688.903 612.608 688.274C612.608 688.274 613.447 681.982 612.084 679.727L600.338 679.412Z" fill="#1A1944"/>
<path d="M593.102 588.488C593.102 588.488 592.682 630.332 594.727 644.333C594.727 644.333 597.769 674.064 599.761 679.15C599.761 679.15 609.777 684.393 612.451 679.15C612.451 679.15 614.653 645.329 613.971 637.726C613.971 637.726 612.713 629.965 614.129 626.085C614.129 626.085 616.331 637.935 617.327 639.456C617.327 639.456 623.095 681.51 626.451 687.435C626.451 687.435 637.463 691.63 639.56 688.588C639.56 688.588 638.983 644.647 636.624 636.415C636.624 636.415 634.159 627.973 634.159 626.819C634.159 626.819 636.152 604.481 630.541 594.518L593.102 588.488Z" fill="#2B2666"/>
<path d="M628.391 599.133C628.391 599.133 631.642 620.999 630.54 626.557C630.54 626.557 634.473 636.467 634.263 639.089C634.263 639.089 635.522 687.278 636.833 689.69C636.833 689.69 639.612 690.057 639.559 688.588C639.559 688.588 639.192 644.437 637.043 638.46C637.043 638.46 635.05 629.179 634.159 626.819C634.159 626.819 635.417 609.777 633.844 606.107L628.391 599.133Z" fill="#24245B"/>
<path d="M600.547 510.411C600.547 510.411 592.682 510.988 589.221 516.861C589.221 516.861 581.303 530.494 577.371 540.51C577.371 540.51 557.76 527.558 555.767 528.344C555.767 528.344 553.145 533.745 553.25 537.888C553.25 537.888 573.228 557.289 580.989 552.779C580.989 552.779 591.214 546.12 592 542.083C592 542.083 592.472 559.439 593.049 563.162C593.049 563.162 591.791 583.874 592.262 587.597C592.262 587.597 610.93 608.991 631.904 597.717C631.904 597.717 633.215 574.96 632.691 570.817C632.691 570.817 631.904 561.222 632.219 556.817C632.219 556.817 640.084 528.554 639.56 524.831C639.56 524.831 638.196 516.179 623.095 512.561C623.095 512.561 618.376 509.048 616.121 509.1L600.547 510.411Z" fill="#3C3581"/>
<path d="M602.226 514.292C602.226 514.292 602.488 518.644 603.484 519.902C603.484 519.902 613.237 521.161 620.526 510.883C620.526 510.883 619.32 509.782 617.747 509.415L602.226 514.292Z" fill="#2A2A63"/>
<path d="M604.585 514.868C604.585 514.868 604.69 517.175 604.952 517.438C604.952 517.438 613.709 516.861 617.537 510.726C617.537 510.726 617.956 506.95 617.537 505.954L604.585 514.868Z" fill="#E0B382"/>
<path d="M595.566 487.916C595.566 487.916 593.416 506.741 599.97 512.614C599.97 512.614 606.682 521.265 618.376 504.853L621.784 497.932L623.724 489.647L617.432 484.141L601.072 485.032L595.566 487.916Z" fill="#F8CC95"/>
<path d="M617.904 487.549C617.904 487.549 601.596 492.898 592.63 486.238C592.63 486.238 590.165 484.403 590.375 481.571C590.375 481.571 589.851 480.418 593.574 478.95C593.574 478.95 601.596 468.725 610.143 468.148C610.143 468.148 621.26 465.421 626.713 475.856C626.713 475.856 631.485 490.066 622.099 500.92C622.099 500.92 620.63 504.486 619.162 504.853C619.162 504.853 615.649 505.273 615.911 501.812C615.911 501.812 616.803 499.557 617.275 499.452C617.275 499.452 619.005 499.505 619.372 497.827C619.372 497.827 621.312 492.478 618.533 491.901C618.533 491.901 617.379 490.119 617.904 487.549Z" fill="#211F51"/>
<path d="M631.747 588.488C631.747 588.488 629.912 591.897 629.912 592.473C629.912 592.473 625.927 596.196 625.822 598.661C625.822 598.661 625.088 602.803 628.444 604.743C628.444 604.743 634.788 608.466 637.935 603.642C637.935 603.642 640.871 600.024 640.189 594.728C640.189 594.728 640.819 592.106 640.661 591.372L631.747 588.488Z" fill="#FDD19C"/>
<path d="M633.634 551.678C633.634 551.678 635.103 560.016 634.736 561.222C634.736 561.222 630.803 577.896 630.803 581.724C630.803 581.724 630.016 586.548 631.17 588.174C631.17 588.174 639.193 592.893 641.657 590.953C641.657 590.953 648.788 567.986 647.74 560.697C647.74 560.697 648.946 529.341 636.833 519.902L633.634 551.678Z" fill="#3C3581"/>
<path d="M633.373 567.304C633.373 567.304 630.436 580.78 630.541 585.657C630.541 585.657 630.174 588.174 631.747 588.488C631.747 588.488 632.376 587.23 631.957 585.971C631.957 585.971 631.38 576.428 633.897 567.881C633.897 567.881 634.316 567.042 634.002 566.885C634.002 566.885 633.53 566.727 633.373 567.304Z" fill="#2A2A63"/>
<path d="M633.635 551.678C633.635 551.678 631.59 545.701 632.691 540.772C632.691 540.772 632.953 539.828 633.215 539.828C633.215 539.828 633.844 539.408 633.635 540.457C633.635 540.457 633.477 550.053 634.054 551.468C634.054 551.468 634.211 552.36 634.054 552.36C633.897 552.36 634.107 552.412 634.107 552.412C634.107 552.412 633.635 552.36 633.635 551.678Z" fill="#2A2A63"/>
<path d="M634.788 560.645C634.788 560.645 637.934 563.004 641.972 560.12C641.972 560.12 642.706 559.701 642.863 560.12C642.863 560.12 643.178 560.645 642.339 561.169C642.339 561.169 638.249 563.109 634.735 561.221L634.788 560.645Z" fill="#2A2A63"/>
<path d="M577.371 540.509C577.371 540.509 575.64 544.39 577.58 547.011C577.58 547.011 578.105 547.379 578.367 547.169C578.367 547.169 578.682 546.907 578.577 546.435C578.577 546.435 577.685 544.862 577.685 541.191C577.685 541.191 577.895 540.352 577.476 540.247L577.371 540.509Z" fill="#2A2A63"/>
<path d="M614.129 626.085C614.129 626.085 612.084 620.474 612.241 613.92C612.241 613.92 612.87 612.976 613.185 613.186C613.185 613.186 614.338 613.343 614.129 614.025C614.129 614.025 613.395 620.632 614.548 625.036C614.548 625.036 614.863 626.085 614.81 626.347C614.81 626.347 614.548 626.924 614.129 626.085Z" fill="#1E1D4C"/>
<path d="M349.957 292.383C349.957 292.383 357.35 286.457 360.706 286.195C360.706 286.195 362.227 285.881 362.646 286.772C362.646 286.772 363.276 287.768 362.017 288.502C362.017 288.502 364.849 290.652 372.976 283.364C372.976 283.364 374.445 282.682 374.654 283.364C374.654 283.364 376.018 284.832 374.078 287.716C374.078 287.716 369.201 297.888 354.571 298.78L352.107 299.933L349.957 292.383Z" fill="#FDD19C"/>
<path d="M278.172 451.001C278.172 451.001 278.854 459.076 278.434 460.754C278.434 460.754 281.476 467.623 281.633 470.035C281.633 470.035 282.315 476.8 276.966 476.8C276.966 476.8 267.842 476.695 266.479 469.983C266.479 469.983 265.011 462.59 265.535 460.964C265.535 460.964 265.273 453.833 266.374 452.417L278.172 451.001Z" fill="#1A1944"/>
<path d="M305.072 442.716C305.072 442.716 305.649 444.866 306.121 445.181C306.121 445.181 319.125 453.623 320.803 457.346C320.803 457.346 324.474 461.855 318.548 462.065C318.548 462.065 306.908 463.009 300.72 456.717C300.72 456.717 299.252 455.406 299.042 455.406C299.042 455.406 294.9 456.402 293.799 454.095C293.799 454.095 292.54 452.207 292.802 451.578C292.802 451.578 291.963 445.286 293.327 443.031L305.072 442.716Z" fill="#1A1944"/>
<path d="M312.308 351.792C312.308 351.792 312.727 393.636 310.682 407.637C310.682 407.637 307.641 437.368 305.596 442.454C305.596 442.454 295.633 447.645 292.959 442.454C292.959 442.454 290.757 408.633 291.438 401.03C291.438 401.03 292.697 393.269 291.281 389.389C291.281 389.389 289.079 401.24 288.03 402.76C288.03 402.76 282.314 444.814 278.906 450.687C278.906 450.687 267.947 454.934 265.85 451.893C265.85 451.893 266.426 407.951 268.786 399.719C268.786 399.719 271.251 391.277 271.251 390.123C271.251 390.123 269.258 367.785 274.869 357.823L312.308 351.792Z" fill="#2B2666"/>
<path d="M277.019 362.437C277.019 362.437 273.768 384.303 274.869 389.809C274.869 389.809 270.937 399.771 271.146 402.393C271.146 402.393 269.888 450.582 268.577 452.994C268.577 452.994 265.798 453.361 265.85 451.893C265.85 451.893 266.217 407.742 268.367 401.764C268.367 401.764 270.307 392.483 271.251 390.123C271.251 390.123 269.993 373.081 271.566 369.411L277.019 362.437Z" fill="#24245B"/>
<path d="M304.81 273.716C304.81 273.716 312.728 274.292 316.189 280.165C316.189 280.165 324.107 293.798 328.039 303.814C328.039 303.814 347.598 290.862 349.643 291.649C349.643 291.649 352.265 297.05 352.107 301.192C352.107 301.192 332.182 320.593 324.421 316.084C324.421 316.084 314.196 309.424 313.41 305.387C313.41 305.387 312.938 322.743 312.361 326.414C312.361 326.414 313.619 347.178 313.147 350.901C313.147 350.901 294.48 372.295 273.506 361.021C273.506 361.021 272.195 338.264 272.719 334.122C272.719 334.122 273.506 324.526 273.191 320.121C273.191 320.121 265.326 291.858 265.85 288.135C265.85 288.135 267.214 279.483 282.315 275.865C282.315 275.865 287.034 272.352 289.289 272.405L304.81 273.716Z" fill="#000D3A"/>
<path d="M303.184 277.596C303.184 277.596 302.922 281.948 301.925 283.206C301.925 283.206 292.12 284.465 284.884 274.187C284.884 274.187 286.09 273.086 287.663 272.719L303.184 277.596Z" fill="#0B2378"/>
<path d="M300.825 278.172C300.825 278.172 300.72 280.48 300.458 280.742C300.458 280.742 291.701 280.165 287.873 274.03C287.873 274.03 287.453 270.255 287.873 269.258L300.825 278.172Z" fill="#E0B382"/>
<path d="M309.844 251.22C309.844 251.22 311.993 269.993 305.439 275.918C305.439 275.918 298.727 284.57 287.034 268.157L283.626 261.236L281.686 252.951L287.978 247.445L304.338 248.336L309.844 251.22Z" fill="#F8CC95"/>
<path d="M287.506 250.853C287.506 250.853 303.814 256.202 312.728 249.542C312.728 249.542 315.245 247.707 314.982 244.876C314.982 244.876 315.507 243.722 311.836 242.254C311.836 242.254 303.814 232.029 295.267 231.452C295.267 231.452 284.15 228.725 278.644 239.16C278.644 239.16 273.925 253.37 283.311 264.225C283.311 264.225 284.727 267.79 286.248 268.157C286.248 268.157 289.761 268.577 289.499 265.116C289.499 265.116 288.607 262.861 288.083 262.756C288.083 262.756 286.405 262.809 286.038 261.131C286.038 261.131 284.098 255.782 286.877 255.206C286.877 255.206 288.03 253.423 287.506 250.853Z" fill="#211F51"/>
<path d="M273.663 351.792C273.663 351.792 275.498 355.201 275.498 355.778C275.498 355.778 279.483 359.448 279.588 361.965C279.588 361.965 280.322 366.055 276.914 368.048C276.914 368.048 270.569 371.771 267.476 366.946C267.476 366.946 264.539 363.328 265.168 358.032C265.168 358.032 264.539 355.411 264.749 354.676L273.663 351.792Z" fill="#FDD19C"/>
<path d="M271.775 314.982C271.775 314.982 270.307 323.32 270.674 324.526C270.674 324.526 274.607 341.2 274.607 345.028C274.607 345.028 275.393 349.852 274.24 351.478C274.24 351.478 266.217 356.197 263.7 354.257C263.7 354.257 256.621 331.29 257.618 324.001C257.618 324.001 256.464 292.645 268.577 283.154L271.775 314.982Z" fill="#000D3A"/>
<path d="M272.038 330.608C272.038 330.608 274.974 344.084 274.817 348.961C274.817 348.961 275.236 351.478 273.663 351.792C273.663 351.792 272.981 350.534 273.453 349.275C273.453 349.275 274.03 339.732 271.513 331.185C271.513 331.185 271.041 330.346 271.408 330.189C271.408 330.189 271.88 330.031 272.038 330.608Z" fill="#0B2378"/>
<path d="M271.775 314.982C271.775 314.982 273.82 309.005 272.719 304.076C272.719 304.076 272.457 303.132 272.195 303.132C272.195 303.132 271.566 302.712 271.775 303.761C271.775 303.761 271.933 313.357 271.356 314.773C271.356 314.773 271.199 315.664 271.356 315.664C271.513 315.664 271.251 315.717 271.251 315.717C271.251 315.717 271.723 315.664 271.775 314.982Z" fill="#0B2378"/>
<path d="M270.622 323.949C270.622 323.949 267.476 326.309 263.438 323.372C263.438 323.372 262.704 323.005 262.547 323.372C262.547 323.372 262.232 323.949 263.071 324.473C263.071 324.473 267.161 326.413 270.675 324.526L270.622 323.949Z" fill="#0B2378"/>
<path d="M328.039 303.814C328.039 303.814 329.77 307.694 327.777 310.316C327.777 310.316 327.305 310.683 327.043 310.473C327.043 310.473 326.676 310.158 326.833 309.739C326.833 309.739 327.725 308.166 327.672 304.495C327.672 304.495 327.515 303.656 327.934 303.552L328.039 303.814Z" fill="#0B2378"/>
<path d="M291.281 389.389C291.281 389.389 293.326 383.778 293.169 377.224C293.169 377.224 292.54 376.28 292.225 376.49C292.225 376.49 291.072 376.647 291.281 377.329C291.281 377.329 292.015 383.936 290.862 388.34C290.862 388.34 290.547 389.389 290.6 389.651C290.6 389.651 290.809 390.228 291.281 389.389Z" fill="#1E1D4C"/>
<path d="M431.757 574.488C435.952 576.9 435.952 580.832 431.757 583.245L363.591 622.624C359.396 625.036 352.579 625.036 348.437 622.624L220.178 548.637C215.984 546.225 215.984 542.292 220.178 539.932L288.817 500.658C293.012 498.298 299.829 498.298 304.023 500.71L431.757 574.488Z" fill="#A0BEEA"/>
<path d="M217.032 538.517C217.032 538.482 217.032 538.429 217.032 538.359V532.382L220.021 534.164C220.091 534.129 220.143 534.095 220.178 534.06L288.817 494.838C293.012 492.425 299.829 492.478 304.023 494.838L431.757 568.667C432.282 568.947 432.719 569.262 433.068 569.611L434.903 567.094V573.019C434.903 574.645 433.855 576.218 431.757 577.424L363.591 616.803C359.396 619.215 352.579 619.215 348.437 616.803L220.178 542.816C218.186 541.663 217.137 540.142 217.032 538.674V538.517Z" fill="#3EA2CE"/>
<path d="M431.757 562.48C435.952 564.892 435.952 568.825 431.757 571.237L363.591 610.616C359.396 613.028 352.579 613.028 348.437 610.616L220.178 536.629C215.984 534.217 215.984 530.284 220.178 527.925L288.817 488.65C293.012 486.291 299.829 486.291 304.023 488.703L431.757 562.48Z" fill="#51BAF4"/>
<path d="M418.386 564.892L411.779 568.72L364.43 541.401L370.774 537.416L418.386 564.892Z" fill="#E5E5E5"/>
<path d="M407.113 571.237L400.506 575.117L353.156 547.798L359.501 543.813L407.113 571.237Z" fill="#E5E5E5"/>
<path d="M362.647 588.383L360.812 589.432L347.65 581.829L349.381 580.728L362.647 588.383Z" fill="#E5E5E5"/>
<path d="M359.501 590.166L357.665 591.215L344.504 583.612L346.234 582.51L359.501 590.166Z" fill="#E5E5E5"/>
<path d="M356.355 591.949L354.467 592.998L341.306 585.394L343.088 584.293L356.355 591.949Z" fill="#E5E5E5"/>
<path d="M353.208 593.732L351.321 594.78L338.159 587.177L339.942 586.076L353.208 593.732Z" fill="#E5E5E5"/>
<path d="M299.2 550L294.113 552.936L258.09 532.119L262.914 529.078L299.2 550Z" fill="#E5E5E5"/>
<path d="M290.286 555.716L285.252 558.652L249.176 537.835L254.052 534.794L290.286 555.716Z" fill="#E5E5E5"/>
<path d="M386.715 583.454L384.198 584.922L366.107 574.488L368.519 572.967L386.715 583.454Z" fill="#E5E5E5"/>
<path d="M366.37 571.761L363.801 573.229L345.763 562.795L348.175 561.274L366.37 571.761Z" fill="#E5E5E5"/>
<path d="M346.182 560.225L343.665 561.693L325.574 551.258L327.986 549.738L346.182 560.225Z" fill="#E5E5E5"/>
<path d="M325.837 548.532L323.32 550L305.229 539.565L307.642 538.045L325.837 548.532Z" fill="#E5E5E5"/>
<path d="M305.229 536.734L302.712 538.202L284.622 527.767L287.034 526.247L305.229 536.734Z" fill="#E5E5E5"/>
<path d="M284.885 525.041L282.368 526.509L264.277 516.074L266.689 514.606L284.885 525.041Z" fill="#E5E5E5"/>
<path d="M321.485 509.205L312.414 514.606L303.237 509.205L312.361 504.066L321.485 509.205Z" fill="#E5E5E5"/>
<path d="M310.473 502.755L301.402 508.156L292.226 502.755L301.349 497.669L310.473 502.755Z" fill="#E5E5E5"/>
<path d="M310.525 515.655L301.506 521.003L292.277 515.655L301.401 510.516L310.525 515.655Z" fill="#E5E5E5"/>
<path d="M299.514 509.205L290.495 514.606L281.318 509.205L290.39 504.066L299.514 509.205Z" fill="#E5E5E5"/>
<path d="M434.903 663.209C434.903 663.209 433.487 672.7 436.109 674.903C436.109 674.903 454.304 678.73 470.088 663.943C470.088 663.943 473.181 661.217 472.185 657.861C472.185 657.861 468.619 653.142 462.275 655.134L446.596 658.018L434.903 663.209Z" fill="#5673BE"/>
<path d="M393.217 659.329C393.217 659.329 391.801 668.82 394.423 671.075C394.423 671.075 412.618 674.85 428.401 660.063C428.401 660.063 431.495 657.389 430.499 654.033C430.499 654.033 426.933 649.314 420.588 651.254L404.91 654.138L393.217 659.329Z" fill="#5673BE"/>
<path d="M440.828 547.378C440.828 547.378 449.532 600.811 449.952 613.133C449.952 613.133 454.881 655.134 453.151 661.269C453.151 661.269 437.997 666.722 432.963 662.056C432.963 662.056 430.498 577.319 421.007 564.053C421.007 564.053 419.12 562.742 418.962 565.364C418.962 565.364 417.284 649.733 412.775 659.224C412.775 659.224 397.097 664.101 392.272 659.067C392.272 659.067 397.883 609.62 397.569 587.492C397.569 587.492 395.366 549.895 395.943 547.378H440.828Z" fill="#455181"/>
<path d="M424.206 465.211C424.206 465.211 437.262 465.002 441.824 470.088C441.824 470.088 452.416 480.942 453.15 483.302C453.15 483.302 451.787 497.512 446.701 499.085C446.701 499.085 441.195 496.358 440.618 493.632C440.618 493.632 444.499 537.153 443.03 546.487C443.03 546.487 414.086 559.596 394.475 546.487C394.475 546.487 391.119 506.95 394.475 498.351C394.475 498.351 383.463 505.063 377.328 495.572C377.328 495.572 379.845 478.006 393.845 467.204C393.845 467.204 401.082 464.635 409.734 465.211H424.206Z" fill="#E6635E"/>
<path d="M425.569 465.998C425.569 465.998 426.985 468.095 425.569 469.406C425.569 469.406 418.543 474.65 409.104 467.204C409.104 467.204 407.793 466.155 407.531 465.159L409.734 465.211L425.569 465.998Z" fill="#C94F4F"/>
<path d="M435.847 444.657C435.847 444.657 439.779 455.721 433.015 462.642C433.015 462.642 432.281 464.582 427.824 465.421C427.824 465.421 425.307 464.949 424.468 467.676C424.468 467.676 417.075 471.032 409.734 465.683C409.734 465.683 408.318 461.226 409.734 459.706L415.974 447.383L425.569 444.237L435.847 444.657Z" fill="#F8CC95"/>
<path d="M446.963 448.589L445.023 444.656L425.622 450.11L427.667 458.29L446.963 453.204V448.589Z" fill="#525478"/>
<path d="M428.663 428.559C428.663 428.559 437.263 436.214 437.63 440.304C437.63 440.304 439.308 444.814 433.12 445.338C433.12 445.338 425.832 447.016 425.465 448.327C425.465 448.327 421.008 448.17 421.742 452.627C421.742 452.627 421.742 457.136 425.098 458.971C425.098 458.971 428.453 460.492 425.832 463.271C425.832 463.271 420.064 466.837 409.052 460.859C409.052 460.859 395.996 450.215 406.273 433.016C406.273 433.016 414.506 419.12 428.663 428.559Z" fill="#1D2942"/>
<path d="M453.15 484.665C453.15 484.665 458.866 483.407 457.66 479.159C457.66 479.159 443.502 463.271 443.502 461.856C443.502 461.856 438.678 459.811 437.839 456.14C437.839 456.14 437.157 452.365 438.94 450.372C438.94 450.372 443.135 446.754 448.693 449.166C448.693 449.166 451.158 451.788 451.787 457.503C451.787 457.503 463.27 469.616 465.42 475.017C465.42 475.017 470.926 486.238 464.686 492.95C464.686 492.95 457.45 500.92 448.169 498.194L453.15 484.665Z" fill="#F8CC95"/>
<path d="M390.28 500.081C390.28 500.081 389.336 512.089 393.006 515.759L393.531 531.595C393.531 531.595 380.789 525.041 379.688 498.298L390.28 500.081Z" fill="#F8CC95"/>
<path d="M240.576 305.806C240.576 292.12 230.98 275.446 219.287 268.734C215.354 266.479 211.631 265.64 208.485 266.007C206.807 266.217 205.287 266.741 203.976 267.58L200.934 269.363L201.564 269.625C199.309 272.247 197.998 276.18 197.998 281.214C197.998 294.742 207.594 311.417 219.287 318.286C223.692 320.908 227.834 321.694 231.242 320.96L231.505 321.432L233.812 320.069C234.161 319.859 234.511 319.649 234.86 319.44L234.913 319.387C238.426 317.027 240.576 312.361 240.576 305.806Z" fill="#CE8B14"/>
<path d="M237.062 307.904C237.062 294.218 227.519 277.491 215.773 270.831C204.08 264.12 194.484 269.73 194.484 283.311C194.484 296.84 204.08 313.514 215.773 320.383C227.519 327.2 237.062 321.589 237.062 307.904Z" fill="#F3B014"/>
<path d="M255.468 403.809C255.468 390.123 245.872 373.396 234.179 366.737C230.246 364.482 226.523 363.643 223.377 364.01H223.324C221.699 364.167 220.178 364.692 218.815 365.531L215.826 367.366L216.455 367.628C214.201 370.25 212.89 374.183 212.89 379.216C212.89 392.745 222.433 409.42 234.179 416.289C238.583 418.858 242.726 419.697 246.134 418.963L246.396 419.382L248.703 418.019C249.053 417.844 249.403 417.635 249.752 417.39C253.318 414.978 255.468 410.311 255.468 403.809Z" fill="#CE8B14"/>
<path d="M251.954 405.906C251.954 392.168 242.358 375.493 230.665 368.782C218.972 362.122 209.376 367.733 209.376 381.261C209.376 394.79 218.972 411.517 230.665 418.334C242.358 425.203 251.954 419.592 251.954 405.906Z" fill="#F3B014"/>
<path d="M378.168 403.809C378.168 390.123 368.624 373.396 356.879 366.737C352.946 364.482 349.276 363.643 346.077 364.01C344.399 364.167 342.931 364.692 341.568 365.531L338.579 367.366L339.155 367.628C336.901 370.25 335.59 374.183 335.59 379.216C335.59 392.745 345.186 409.42 356.879 416.289C361.336 418.858 365.426 419.697 368.887 418.963L369.096 419.382L371.456 418.019C371.806 417.844 372.138 417.635 372.452 417.39H372.505C376.018 414.978 378.168 410.311 378.168 403.809Z" fill="#CE8B14"/>
<path d="M374.707 405.906C374.707 392.168 365.111 375.493 353.418 368.782C341.672 362.122 332.129 367.733 332.129 381.261C332.129 394.79 341.672 411.517 353.418 418.334C365.111 425.203 374.707 419.592 374.707 405.906Z" fill="#F3B014"/>
</svg>
