<svg width="73" height="39" viewBox="0 0 73 39" fill="none" xmlns="http://www.w3.org/2000/svg">
<g clip-path="url(#clip0_2879_18598)">
<path d="M44.4942 13.6133H44.4773C44.4644 13.7365 44.3788 13.8506 44.218 13.8506C44.1622 13.8506 44.1156 13.835 44.078 13.8117C43.8601 13.8104 43.641 13.8065 43.4232 13.8168C43.1574 13.8285 42.8915 13.8207 42.627 13.8376C42.4792 13.8467 42.3677 13.7118 42.3573 13.5744C41.0335 13.2684 39.908 12.4437 39.2026 11.3286V38.9987H47.811V11.3442C47.0758 12.4995 45.8881 13.341 44.4942 13.6133Z" fill="#3A7BD5"/>
<path d="M17.3769 10.8385C19.5241 10.8385 21.447 11.2664 23.1417 12.1222C24.8364 12.978 26.1706 14.2876 27.1444 16.0497C28.1168 17.8118 28.6057 20.0692 28.6057 22.822V38.3284H20.7507V24.0291C20.7507 21.8482 20.2722 20.2365 19.3166 19.1953C18.3597 18.1554 17.0086 17.6355 15.2634 17.6355C14.0212 17.6355 12.9048 17.9052 11.9155 18.4407C10.9248 18.9775 10.1534 19.7671 9.59969 20.807C9.04603 21.8482 8.76855 23.2239 8.76855 24.9355V38.3284H0.913574V0.971191H8.76725V18.7441L7.00514 16.4789C7.97761 14.6662 9.37148 13.2736 11.1842 12.2998C12.9969 11.3274 15.0611 10.8398 17.3769 10.8398V10.8385Z" fill="#3A7BD5"/>
<path d="M59.6155 38.7315C57.2998 38.7315 55.0851 38.454 52.9703 37.9003C50.8555 37.3467 49.1608 36.6504 47.8862 35.8102L50.4536 30.2217C51.7281 30.9595 53.2141 31.5728 54.9088 32.059C56.6035 32.5465 58.2735 32.789 59.9189 32.789C61.7316 32.789 63.0153 32.5712 63.7699 32.1342C64.5246 31.6985 64.9032 31.0943 64.9032 30.3215C64.9032 29.6849 64.6089 29.2051 64.0228 28.8875C63.4354 28.5685 62.6626 28.326 61.707 28.1574C60.7514 27.9889 59.6843 27.8216 58.5095 27.6531C57.3348 27.4858 56.1691 27.2511 55.0099 26.9477C53.852 26.6456 52.7771 26.2177 51.7878 25.664C50.7972 25.1104 50.0088 24.348 49.4214 23.3742C48.8341 22.4017 48.5397 21.1414 48.5397 19.5984C48.5397 17.8869 49.0441 16.3685 50.0503 15.042C51.0578 13.7156 52.4828 12.6835 54.3305 11.9457C56.1769 11.2079 58.4084 10.8384 61.0263 10.8384C62.9051 10.8384 64.7943 11.0484 66.6899 11.4685C68.5869 11.8886 70.1895 12.4669 71.4978 13.2047L68.8294 18.7932C67.5535 18.0554 66.253 17.5342 64.9278 17.2334C63.6014 16.9312 62.3346 16.7795 61.1261 16.7795C59.3134 16.7795 58.0051 17.0155 57.1986 17.4849C56.3934 17.9556 55.9902 18.5598 55.9902 19.2976C55.9902 19.9692 56.2923 20.4801 56.8965 20.8328C57.5007 21.1855 58.2891 21.4461 59.2629 21.6134C60.2353 21.7819 61.3102 21.9492 62.485 22.1165C63.6597 22.285 64.8176 22.5197 65.9586 22.8218C67.0997 23.1239 68.1655 23.5518 69.1561 24.1055C70.1455 24.6591 70.9351 25.4229 71.5225 26.3953C72.1086 27.3691 72.4029 28.6281 72.4029 30.1711C72.4029 31.8165 71.8998 33.2843 70.8936 34.5758C69.8861 35.8685 68.4339 36.8838 66.5382 37.6215C64.6413 38.3593 62.3346 38.7289 59.6155 38.7289V38.7315Z" fill="#3A7BD5"/>
<path opacity="0.9" d="M28.6042 38.3282V23.2056C28.6042 23.2056 28.3099 20.4529 31.2001 18.6571C32.5875 17.7948 35.8563 18.0762 38.2524 18.0762V10.8397C38.2524 10.8397 20.7246 9.22927 20.7246 23.2069L20.7505 38.3295H28.6055L28.6042 38.3282Z" fill="#6B7280"/>
<path d="M26.0435 10.2071C28.8621 10.2071 31.147 7.92213 31.147 5.10353C31.147 2.28493 28.8621 0 26.0435 0C23.2249 0 20.9399 2.28493 20.9399 5.10353C20.9399 7.92213 23.2249 10.2071 26.0435 10.2071Z" fill="#0D9488"/>
<path d="M43.5064 13.0054C46.325 13.0054 48.6099 10.7205 48.6099 7.90187C48.6099 5.08327 46.325 2.79834 43.5064 2.79834C40.6878 2.79834 38.4028 5.08327 38.4028 7.90187C38.4028 10.7205 40.6878 13.0054 43.5064 13.0054Z" fill="#0D9488"/>
<path d="M44.4946 13.6133L45.5008 20.029L43.4625 22.2216L41.5137 19.9953L42.3591 13.5757L44.4946 13.6133Z" fill="#FEFFFF"/>
</g>
<defs>
<clipPath id="clip0_2879_18598">
<rect width="71.4896" height="39" fill="white" transform="translate(0.913574)"/>
</clipPath>
</defs>
</svg>
