<svg width="60" height="60" viewBox="0 0 60 60" fill="none" xmlns="http://www.w3.org/2000/svg">
<circle cx="30" cy="30" r="30" fill="#5272FF"/>
<path d="M39.2498 29.612L33.7498 24.0841L35.7082 22.1395L39.2498 25.6811L46.3332 18.5978L48.2778 20.5841L39.2498 29.612ZM24.9998 29.9728C23.1665 29.9728 21.6433 29.3664 20.4303 28.1536C19.2175 26.9406 18.6111 25.4174 18.6111 23.5841C18.6111 21.7507 19.2175 20.2275 20.4303 19.0145C21.6433 17.8017 23.1665 17.1953 24.9998 17.1953C26.8332 17.1953 28.3564 17.8017 29.5694 19.0145C30.7822 20.2275 31.3886 21.7507 31.3886 23.5841C31.3886 25.4174 30.7822 26.9406 29.5694 28.1536C28.3564 29.3664 26.8332 29.9728 24.9998 29.9728ZM11.6665 43.3341V39.1674C11.6665 38.2043 11.9096 37.327 12.3957 36.5353C12.8818 35.7436 13.5647 35.1488 14.4444 34.7507C16.4072 33.8527 18.2251 33.2068 19.8982 32.8132C21.5709 32.4196 23.27 32.2228 24.9953 32.2228C26.7205 32.2228 28.4165 32.4196 30.0832 32.8132C31.7498 33.2068 33.5647 33.8527 35.5278 34.7507C36.4072 35.1674 37.0947 35.767 37.5903 36.5495C38.0855 37.3317 38.3332 38.2043 38.3332 39.1674V43.3341H11.6665ZM14.4444 40.5561H35.5553V39.1674C35.5553 38.7693 35.4465 38.3943 35.229 38.0424C35.0115 37.6905 34.7222 37.4266 34.3611 37.2507C32.5461 36.3896 30.9303 35.7993 29.5136 35.4799C28.0969 35.1605 26.5923 35.0007 24.9998 35.0007C23.4073 35.0007 21.898 35.1605 20.4719 35.4799C19.0461 35.7993 17.4258 36.3896 15.6111 37.2507C15.25 37.4266 14.9653 37.6905 14.7569 38.0424C14.5486 38.3943 14.4444 38.7693 14.4444 39.1674V40.5561ZM24.9998 27.1953C26.0276 27.1953 26.8864 26.8503 27.5761 26.1603C28.2661 25.4706 28.6111 24.6118 28.6111 23.5841C28.6111 22.5563 28.2661 21.6975 27.5761 21.0078C26.8864 20.3178 26.0276 19.9728 24.9998 19.9728C23.9721 19.9728 23.1133 20.3178 22.4236 21.0078C21.7336 21.6975 21.3886 22.5563 21.3886 23.5841C21.3886 24.6118 21.7336 25.4706 22.4236 26.1603C23.1133 26.8503 23.9721 27.1953 24.9998 27.1953Z" fill="white"/>
</svg>
