<svg width="60" height="60" viewBox="0 0 60 60" fill="none" xmlns="http://www.w3.org/2000/svg">
<circle cx="30" cy="30" r="30" fill="#45E3FF"/>
<path d="M27.4447 43.6673C28.7503 41.1765 30.44 39.489 32.5139 38.6048C34.5881 37.7207 36.3797 37.2786 37.8889 37.2786C38.5278 37.2786 39.1297 37.3294 39.6947 37.4311C40.2595 37.533 40.8335 37.6673 41.4168 37.834C42.1204 36.797 42.7084 35.6015 43.1806 34.2473C43.6528 32.8934 43.8889 31.4779 43.8889 30.0007C43.8889 26.1234 42.5435 22.8393 39.8527 20.1482C37.1616 17.4573 33.8774 16.1119 30.0002 16.1119C26.1229 16.1119 22.8388 17.4573 20.1477 20.1482C17.4568 22.8393 16.1114 26.1234 16.1114 30.0007C16.1114 31.3618 16.3035 32.6719 16.6877 33.9311C17.0718 35.1905 17.6111 36.3341 18.3056 37.3619C19.4445 36.7691 20.6297 36.32 21.8614 36.0144C23.0928 35.7088 24.352 35.5561 25.6389 35.5561C26.4722 35.5561 27.2802 35.6186 28.0627 35.7436C28.8452 35.8686 29.5836 36.0654 30.2781 36.334C29.7872 36.6304 29.3081 36.9591 28.8406 37.3202C28.3728 37.6814 27.9445 38.047 27.5556 38.4173C27.1853 38.3618 26.845 38.334 26.5347 38.334H25.6518C24.6618 38.334 23.6877 38.4405 22.7293 38.6536C21.771 38.8664 20.852 39.195 19.9722 39.6394C20.9722 40.6766 22.1135 41.5494 23.396 42.2577C24.6785 42.9661 26.0281 43.4359 27.4447 43.6673ZM30.0131 46.6673C27.7175 46.6673 25.5559 46.2298 23.5281 45.3548C21.5003 44.4798 19.7317 43.2877 18.2222 41.7786C16.7131 40.2691 15.521 38.5027 14.646 36.4794C13.771 34.4561 13.3335 32.294 13.3335 29.9932C13.3335 27.6926 13.771 25.533 14.646 23.5144C15.521 21.4961 16.7131 19.7322 18.2222 18.2227C19.7317 16.7136 21.4981 15.5215 23.5214 14.6465C25.5447 13.7715 27.7068 13.334 30.0077 13.334C32.3082 13.334 34.4678 13.7715 36.4864 14.6465C38.5047 15.5215 40.2686 16.7136 41.7781 18.2227C43.2872 19.7322 44.4793 21.4963 45.3543 23.5152C46.2293 25.5344 46.6668 27.6919 46.6668 29.9877C46.6668 32.2833 46.2293 34.445 45.3543 36.4727C44.4793 38.5005 43.2872 40.2691 41.7781 41.7786C40.2686 43.2877 38.5045 44.4798 36.4856 45.3548C34.4664 46.2298 32.3089 46.6673 30.0131 46.6673ZM25.6422 32.5007C24.0475 32.5007 22.6853 31.9369 21.5556 30.8094C20.4261 29.6822 19.8614 28.3211 19.8614 26.7261C19.8614 25.1313 20.425 23.7691 21.5522 22.6394C22.6797 21.51 24.0409 20.9452 25.6356 20.9452C27.2306 20.9452 28.5928 21.5088 29.7222 22.6361C30.852 23.7636 31.4168 25.1247 31.4168 26.7194C31.4168 28.3144 30.8531 29.6766 29.7256 30.8061C28.5984 31.9358 27.2372 32.5007 25.6422 32.5007ZM25.6389 29.7227C26.4722 29.7227 27.1806 29.4311 27.7639 28.8477C28.3472 28.2644 28.6389 27.5561 28.6389 26.7227C28.6389 25.8894 28.3472 25.1811 27.7639 24.5977C27.1806 24.0144 26.4722 23.7227 25.6389 23.7227C24.8056 23.7227 24.0972 24.0144 23.5139 24.5977C22.9306 25.1811 22.6389 25.8894 22.6389 26.7227C22.6389 27.5561 22.9306 28.2644 23.5139 28.8477C24.0972 29.4311 24.8056 29.7227 25.6389 29.7227ZM37.8889 34.334C36.6853 34.334 35.6622 33.9127 34.8197 33.0702C33.977 32.2275 33.5556 31.2043 33.5556 30.0007C33.5556 28.797 33.977 27.7738 34.8197 26.9311C35.6622 26.0886 36.6853 25.6673 37.8889 25.6673C39.0928 25.6673 40.116 26.0886 40.9585 26.9311C41.801 27.7738 42.2223 28.797 42.2223 30.0007C42.2223 31.2043 41.801 32.2275 40.9585 33.0702C40.116 33.9127 39.0928 34.334 37.8889 34.334Z" fill="white"/>
</svg>
