<svg width="60" height="60" viewBox="0 0 60 60" fill="none" xmlns="http://www.w3.org/2000/svg">
<circle cx="30" cy="30" r="30" fill="#000D3A"/>
<path d="M10 40V37.6529C10 36.5404 10.5879 35.635 11.7638 34.9367C12.9399 34.2381 14.485 33.8887 16.3992 33.8887C16.745 33.8887 17.0774 33.8957 17.3962 33.9096C17.7154 33.9235 18.0278 33.955 18.3333 34.0042C18.0556 34.52 17.8472 35.0493 17.7083 35.5921C17.5694 36.1351 17.5 36.7017 17.5 37.2917V40H10ZM20 40V37.2917C20 36.4028 20.2431 35.5903 20.7292 34.8542C21.2153 34.1181 21.9028 33.4722 22.7917 32.9167C23.6806 32.3611 24.7431 31.9444 25.9792 31.6667C27.2153 31.3889 28.5556 31.25 30 31.25C31.4722 31.25 32.8264 31.3889 34.0625 31.6667C35.2986 31.9444 36.3611 32.3611 37.25 32.9167C38.1389 33.4722 38.8194 34.1181 39.2917 34.8542C39.7639 35.5903 40 36.4028 40 37.2917V40H20ZM42.5 40V37.2917C42.5 36.6831 42.4375 36.1096 42.3125 35.5713C42.1875 35.0329 41.9907 34.5113 41.7221 34.0063C42.0276 33.9557 42.3371 33.9235 42.6504 33.9096C42.964 33.8957 43.2843 33.8887 43.6113 33.8887C45.5279 33.8887 47.0718 34.2315 48.2429 34.9171C49.4143 35.6026 50 36.5146 50 37.6529V40H42.5ZM22.8471 37.2221H37.1667V37.0554C37.0742 36.1851 36.3496 35.4629 34.9929 34.8887C33.6365 34.3149 31.9722 34.0279 30 34.0279C28.0278 34.0279 26.3635 34.3149 25.0071 34.8887C23.6504 35.4629 22.9304 36.1944 22.8471 37.0833V37.2221ZM16.3767 32.5C15.5422 32.5 14.8264 32.2008 14.2292 31.6025C13.6319 31.0042 13.3333 30.2849 13.3333 29.4446C13.3333 28.5926 13.6325 27.8704 14.2308 27.2779C14.8292 26.6851 15.5485 26.3888 16.3888 26.3888C17.2407 26.3888 17.9629 26.6851 18.5554 27.2779C19.1482 27.8704 19.4446 28.5967 19.4446 29.4567C19.4446 30.2911 19.1482 31.0069 18.5554 31.6042C17.9629 32.2014 17.2367 32.5 16.3767 32.5ZM43.5992 32.5C42.7644 32.5 42.0485 32.2008 41.4513 31.6025C40.854 31.0042 40.5554 30.2849 40.5554 29.4446C40.5554 28.5926 40.8547 27.8704 41.4533 27.2779C42.0517 26.6851 42.771 26.3888 43.6113 26.3888C44.4629 26.3888 45.1851 26.6851 45.7779 27.2779C46.3704 27.8704 46.6667 28.5967 46.6667 29.4567C46.6667 30.2911 46.3704 31.0069 45.7779 31.6042C45.1851 32.2014 44.4589 32.5 43.5992 32.5ZM30 30C28.6111 30 27.4306 29.5139 26.4583 28.5417C25.4861 27.5694 25 26.3889 25 25C25 23.5833 25.4861 22.3958 26.4583 21.4375C27.4306 20.4792 28.6111 20 30 20C31.4167 20 32.6042 20.4792 33.5625 21.4375C34.5208 22.3958 35 23.5833 35 25C35 26.3889 34.5208 27.5694 33.5625 28.5417C32.6042 29.5139 31.4167 30 30 30ZM30.0096 27.2221C30.6421 27.2221 31.169 27.0082 31.5904 26.5804C32.0115 26.1526 32.2221 25.6226 32.2221 24.9904C32.2221 24.3579 32.0101 23.831 31.5863 23.4096C31.1621 22.9885 30.6365 22.7779 30.0096 22.7779C29.3829 22.7779 28.8543 22.9899 28.4238 23.4137C27.9932 23.8379 27.7779 24.3635 27.7779 24.9904C27.7779 25.6171 27.9918 26.1457 28.4196 26.5763C28.8474 27.0068 29.3774 27.2221 30.0096 27.2221Z" fill="white"/>
</svg>
